<svg version="1.1" id="Layer_1" xmlns="http://www.w3.org/2000/svg" xmlns:xlink="http://www.w3.org/1999/xlink" x="0px" y="0px"
	 width="100%" viewBox="0 0 752 448" enable-background="new 0 0 752 448" xml:space="preserve">
<path fill="#000000" opacity="1.000000" stroke="none" 
	d="
M548.727295,232.208344 
	C550.537537,231.091919 552.363831,230.582291 553.235596,228.717010 
	C553.846375,227.410141 555.060608,226.851715 556.520691,226.842087 
	C566.127014,226.778732 574.835327,221.362289 584.589233,222.105316 
	C584.989563,222.135818 585.430481,221.632874 586.197266,221.170578 
	C583.514587,216.558319 583.826782,211.052795 581.462402,206.271042 
	C579.077881,201.448486 578.719299,196.304123 579.945007,190.925064 
	C583.727661,197.964005 584.246155,206.172958 588.220276,213.385742 
	C591.365417,211.760422 594.266968,210.243958 597.185242,208.760376 
	C598.598389,208.041916 600.055786,207.641190 601.243713,209.130539 
	C602.280762,210.430740 601.499817,211.587326 600.878906,212.805435 
	C599.654358,215.207596 598.189026,217.438202 596.097107,219.132736 
	C593.992981,220.837158 593.176086,222.867584 593.005188,225.595657 
	C592.821594,228.525177 593.416321,231.012207 596.414001,231.147064 
	C599.276367,231.275848 602.990417,232.257782 604.704407,228.485718 
	C606.417053,224.716858 608.415955,221.104462 609.602051,217.056503 
	C611.891296,209.243500 611.673584,207.441437 605.289490,202.433426 
	C599.530273,197.915604 593.525757,193.710983 587.640198,189.353607 
	C584.149719,186.769424 580.429688,184.221100 578.170898,180.541565 
	C572.875488,171.915497 564.402222,167.217987 556.392090,161.896820 
	C552.087463,159.037247 547.717896,156.278900 544.360718,152.245575 
	C543.244568,150.904633 542.198364,149.361603 543.507751,147.787384 
	C544.967346,146.032593 546.668579,147.278656 547.924500,148.254990 
	C560.463440,158.002396 575.110291,165.006653 585.250977,177.904587 
	C591.267029,185.556305 600.453247,189.598953 607.823608,195.780807 
	C618.091675,204.393127 619.581299,212.151489 612.609619,223.835876 
	C611.502197,225.691940 610.220642,227.443237 609.061157,229.269363 
	C607.932617,231.046646 607.692505,232.552979 608.965515,234.706787 
	C615.463501,245.700745 615.179810,247.970856 606.945557,258.366028 
	C614.610291,267.127960 617.671509,277.896301 619.636292,289.106232 
	C620.455627,293.781189 619.320923,297.749878 615.089355,300.297760 
	C612.549988,301.826752 611.906189,303.862793 612.347900,306.628998 
	C614.012512,317.052521 612.917603,327.522125 612.509583,337.952423 
	C612.308350,343.097168 612.614807,348.240814 612.727234,353.332550 
	C612.861023,359.395630 617.765381,363.591339 621.642883,367.922516 
	C622.481567,368.859314 623.745239,368.669373 624.934753,368.303345 
	C629.151794,367.005798 632.006958,368.664368 634.913147,371.895721 
	C640.287720,377.871552 643.966919,385.389008 651.017151,389.848175 
	C651.157654,389.937042 651.411804,390.027527 651.415833,390.125366 
	C651.767761,398.661285 661.260071,398.502655 664.841736,404.229156 
	C667.621704,408.674042 668.482605,413.437500 664.776733,416.448700 
	C663.304260,413.615601 663.186523,410.310974 660.454834,407.969177 
	C656.794800,404.831512 651.886780,403.580933 647.970398,406.468689 
	C645.453674,408.324402 643.368347,410.787689 641.206360,413.088287 
	C640.561890,413.774139 639.709595,415.318359 639.972961,415.643860 
	C643.295349,419.751190 639.227234,421.553711 637.368347,423.762299 
	C634.502563,427.167206 633.094788,431.250214 631.283630,435.154572 
	C630.444763,436.963043 630.294189,438.688232 632.654541,439.670471 
	C635.212219,440.734741 636.453369,439.304565 637.255859,437.276154 
	C641.229797,427.231842 649.064514,420.117920 656.078613,412.385040 
	C656.934814,411.441101 657.855652,410.324005 660.191711,410.922241 
	C658.812805,415.651489 654.637695,419.029846 653.555664,423.938538 
	C656.566772,425.912231 658.462219,422.311462 662.021057,422.899597 
	C657.829102,427.152161 657.623901,432.729218 655.339600,437.376801 
	C653.798950,440.511230 651.119324,443.643005 646.274536,442.781647 
	C644.330933,442.436096 642.010925,443.467285 640.019287,444.264221 
	C632.376160,447.322510 626.989624,442.754822 621.463440,438.853516 
	C620.016052,437.831726 618.769348,436.178955 619.507324,434.098022 
	C620.250488,432.002625 622.159668,431.575653 624.025391,431.739258 
	C628.512451,432.132812 631.392517,430.098633 631.535828,425.782562 
	C631.670532,421.724426 629.915283,418.563019 624.977356,417.971802 
	C621.498230,417.555176 618.549133,415.364136 615.658691,413.351440 
	C610.881042,410.024628 605.981628,406.868866 601.270569,403.451996 
	C598.745667,401.620667 596.558289,399.653625 595.965454,396.014832 
	C595.464905,392.942200 592.086914,391.766418 589.399231,390.485809 
	C584.749939,388.270416 580.119690,386.009247 575.412354,383.923187 
	C569.660522,381.374268 567.737183,376.384979 566.827820,370.774200 
	C564.806335,358.301880 562.017334,345.995239 558.823975,333.783508 
	C557.385620,328.283081 555.808044,327.493011 551.155701,330.226990 
	C538.268250,337.800415 524.748291,344.270630 512.323669,352.654633 
	C506.754059,356.412933 503.053894,360.936432 503.101166,368.129608 
	C503.128632,372.315582 500.867920,376.095001 499.429382,379.988159 
	C496.838470,386.999756 494.193359,393.991302 491.580597,400.994873 
	C489.932037,405.413910 489.352112,409.993927 489.177490,414.700806 
	C488.843353,423.707458 480.303040,430.697937 471.462067,428.779633 
	C466.686523,427.743408 460.881287,428.011810 458.395905,422.034271 
	C457.876526,420.785156 456.110870,420.775757 454.819672,420.553986 
	C445.343231,418.926392 439.511597,413.165161 436.810272,404.227295 
	C434.825470,397.660248 436.625000,391.685242 440.995697,386.532990 
	C443.523285,383.553406 446.388672,382.842804 449.598572,385.810974 
	C451.643860,387.702301 453.902405,389.363007 456.498077,391.480072 
	C458.488190,386.497681 458.717010,381.960419 458.968140,377.335815 
	C459.364746,370.032562 457.730499,362.699188 459.411499,355.425018 
	C459.793182,353.773285 459.943054,351.798553 461.733948,351.294617 
	C465.796356,350.151428 465.870544,347.184753 465.856201,343.842712 
	C465.823425,336.220703 466.894287,328.676941 468.259430,320.941437 
	C450.825562,316.541260 434.194031,309.061218 416.269714,311.605865 
	C409.218750,312.606842 402.354980,311.625549 396.258942,310.405975 
	C389.614471,309.076660 382.837891,307.199188 376.014557,306.054993 
	C369.971527,305.041687 363.949158,303.777588 357.784821,303.638794 
	C357.291168,303.627686 356.755157,303.671967 356.312164,303.500824 
	C341.899231,297.932831 327.242157,301.830383 312.731781,302.661011 
	C305.123566,303.096558 297.501892,303.478516 289.892883,303.980225 
	C285.848358,304.246887 281.484039,303.832153 278.923096,308.306030 
	C278.130585,309.690460 276.197876,309.347839 274.724426,309.305389 
	C259.906860,308.878601 245.124832,309.054565 230.491074,311.813202 
	C218.502228,314.073242 206.208054,314.504395 194.410843,317.947479 
	C190.728226,319.022278 186.873123,319.635559 183.040970,319.171844 
	C175.153915,318.217560 168.611526,322.689880 161.362045,324.288544 
	C143.770996,328.167786 127.260239,335.548981 109.989700,340.470978 
	C105.461182,341.761627 101.409126,343.634094 97.344864,345.990265 
	C89.189911,350.717896 80.070160,348.466919 71.431839,348.000031 
	C65.127159,347.659241 58.912632,346.543213 52.611061,347.860260 
	C51.926876,348.003235 51.320835,347.656250 50.870567,346.597473 
	C51.204090,344.448761 53.177246,344.514923 54.911186,344.276276 
	C60.397564,343.521179 65.861771,343.683807 71.275269,344.851013 
	C79.610878,346.648224 87.370865,344.144623 95.122223,341.683197 
	C98.769676,340.524963 102.262772,338.780670 105.970139,337.933685 
	C112.223648,336.505005 113.320564,331.665344 114.977905,326.147034 
	C111.053848,326.790039 108.108826,328.729156 104.684525,328.238647 
	C98.762108,327.390259 93.618187,325.654144 90.966217,319.477722 
	C88.329720,313.337341 91.508644,308.503662 93.922325,303.439087 
	C94.161575,302.937134 95.140381,302.264893 95.463211,302.402924 
	C101.446243,304.961639 101.827782,299.024384 104.228676,296.462891 
	C105.700859,294.892212 106.294159,292.497742 107.790268,289.431976 
	C104.642387,291.878296 103.939247,295.460236 99.620232,295.885590 
	C101.320595,290.443939 104.566269,286.454102 106.893120,282.044128 
	C107.976074,279.991699 109.388359,278.148773 109.949036,275.809937 
	C111.679626,268.590912 117.069229,264.708344 123.468010,262.420258 
	C125.711212,261.618134 126.423492,260.520081 126.741348,258.792938 
	C128.839355,247.393005 130.821167,235.971725 132.864746,224.561691 
	C133.389221,221.633453 131.688568,221.271439 129.371933,221.181961 
	C114.311600,220.600220 107.620247,213.615311 105.517372,198.336990 
	C103.633415,184.649185 106.242943,171.913254 110.992294,159.293961 
	C112.264061,155.914795 112.937965,152.315140 114.088120,148.884354 
	C115.076576,145.935913 116.235565,143.005386 119.032745,140.992096 
	C121.616165,142.771698 120.190552,144.711411 119.598907,146.397278 
	C116.901711,154.082840 114.706894,161.911407 112.458748,169.736252 
	C109.090759,181.458862 109.178574,193.052109 112.785461,204.621506 
	C115.646759,213.799393 121.977280,218.605148 129.748474,217.651398 
	C131.362778,217.453262 132.924255,216.763412 134.488373,216.235825 
	C135.842194,215.779190 137.211716,214.422333 138.565063,215.951187 
	C139.739227,217.277573 138.928009,218.754684 138.441772,220.178513 
	C135.209518,229.643661 134.078415,239.565872 132.445450,249.351730 
	C131.775223,253.368057 129.494690,257.197601 130.773651,262.802002 
	C157.153961,250.471375 177.115585,230.822296 197.489090,211.763062 
	C194.019180,205.865417 187.365036,205.605423 184.155060,200.455704 
	C178.718475,202.660065 175.857025,207.615173 171.831924,211.151291 
	C169.416779,213.273071 167.706329,217.502426 164.137604,216.521652 
	C160.277420,215.460785 162.096207,211.058792 161.665771,208.130051 
	C160.675385,201.391281 159.914398,194.660492 158.357025,187.972717 
	C157.084625,182.508606 156.659546,176.603287 158.876099,171.025131 
	C159.879623,168.499680 159.156372,166.588409 157.066208,164.915665 
	C153.808411,162.308533 153.244949,158.886765 154.353012,155.003174 
	C158.102386,141.862228 164.195541,131.309174 178.176712,125.831802 
	C188.301163,121.865372 196.904373,121.174545 205.630646,127.886841 
	C207.067200,128.991852 208.764557,128.761795 210.439423,128.684082 
	C214.446808,128.498138 218.435120,128.711380 222.306839,129.842346 
	C228.160843,131.552353 229.557404,134.761459 227.292984,140.497391 
	C225.798340,144.283478 223.047241,146.774796 219.705139,148.810928 
	C217.957840,149.875458 216.421463,150.944672 217.054443,153.534729 
	C218.834717,160.819244 219.673309,168.187744 217.754333,175.601852 
	C232.091446,177.273605 237.739548,171.956985 237.984451,158.467133 
	C238.145859,149.576691 237.139420,141.054871 235.080475,132.429291 
	C233.810211,127.107658 235.711060,121.519524 237.129257,116.240318 
	C238.331833,111.763649 240.090637,107.419426 241.831314,103.108658 
	C243.952484,97.855545 246.108398,97.637070 249.812469,102.484238 
	C251.005936,99.273300 253.251984,97.124390 255.694168,95.121323 
	C259.980621,91.605583 264.232971,92.347443 266.543884,97.620308 
	C271.507294,108.945259 270.523651,120.059433 264.030640,130.511246 
	C262.289948,133.313263 260.606232,135.201828 264.268494,137.862091 
	C266.327850,139.358017 265.406372,142.525589 266.206116,144.898285 
	C270.319885,157.103424 273.607544,169.395905 270.245758,182.521011 
	C268.580933,189.020813 264.795532,194.197784 261.041077,199.747238 
	C265.621246,199.904221 266.200897,202.633148 265.651825,206.081818 
	C264.520294,213.188751 260.721161,218.993622 256.958038,224.953522 
	C251.269485,233.962830 247.267731,244.069672 249.914719,254.649643 
	C253.103607,267.395721 253.561676,280.224945 254.195084,293.137909 
	C254.300903,295.295258 254.377808,297.470459 254.726456,299.595032 
	C255.096268,301.848572 256.440948,303.150848 258.934662,302.779877 
	C261.234558,302.437714 263.537109,302.113556 265.838684,301.782684 
	C279.323059,299.844238 292.982513,300.477417 306.502075,298.990021 
	C317.572266,297.772125 328.650940,296.531952 339.799652,296.327057 
	C345.256348,296.226807 350.712738,295.761200 356.181946,296.565948 
	C363.315704,297.615570 364.275238,296.630066 363.763214,289.605865 
	C363.290466,283.120392 362.495728,276.694489 360.374298,270.501251 
	C359.826141,268.900970 359.366302,267.297699 361.239807,266.071381 
	C364.146606,266.969482 363.729431,270.300690 366.007874,272.032867 
	C371.134827,267.558136 378.389130,266.257935 383.490143,261.457855 
	C387.416809,257.762878 393.100494,255.180695 392.860168,248.400162 
	C392.805817,246.867081 394.153992,246.196442 395.212402,245.387283 
	C398.213135,243.093124 400.100433,239.699570 399.586334,236.283173 
	C398.317657,227.852570 400.519165,219.376587 398.753845,211.018936 
	C398.549774,210.052841 398.579041,208.998306 397.175201,208.108521 
	C391.426483,213.647430 384.692871,215.616486 376.730743,211.106049 
	C375.920929,215.912201 377.680542,220.317017 375.600220,224.026505 
	C372.073456,230.315125 372.027924,235.288483 379.176117,239.119034 
	C381.032318,240.113739 381.975403,242.771820 383.406494,244.612564 
	C384.641174,246.200638 385.335052,247.892044 383.898163,249.589127 
	C382.164520,251.636734 380.629211,250.007416 379.139984,249.020538 
	C377.336578,247.825470 375.562408,246.586044 373.752228,245.401550 
	C373.355347,245.141861 372.859863,245.032867 372.071747,244.720474 
	C372.705719,249.202713 378.433105,250.327011 378.421539,254.892960 
	C375.817139,256.425323 374.474792,254.544327 373.240082,253.152740 
	C370.922546,250.540771 368.830292,247.728317 366.656433,244.989655 
	C365.225861,243.187424 364.120300,240.967255 361.182129,241.377090 
	C360.104889,241.527359 359.196075,241.034195 359.039520,239.807693 
	C358.886749,238.610428 359.726624,238.036331 360.633759,237.539627 
	C372.824615,230.864624 372.601257,219.829712 370.638275,208.373154 
	C370.017944,204.752930 369.399963,201.507126 370.521851,197.699875 
	C371.826630,193.271744 368.931366,188.999969 367.823944,184.687378 
	C365.994659,177.563690 367.984344,172.629242 374.723877,169.816498 
	C377.290985,168.745148 378.546906,166.790726 379.912567,164.704086 
	C380.459686,163.868073 381.245239,163.136642 382.421021,163.651077 
	C383.352905,164.058838 383.638397,164.993576 383.263672,165.733002 
	C381.152344,169.899277 381.403137,174.458481 380.846008,178.889359 
	C380.780243,179.412125 380.062653,179.852951 379.702576,180.267990 
	C376.190369,179.953110 377.769958,175.672989 375.010590,174.841507 
	C372.656006,175.445023 372.177429,177.294708 372.217377,179.413620 
	C372.372528,187.643768 374.901672,195.480362 376.769684,203.358307 
	C378.122559,209.063690 388.744995,210.587997 392.976257,206.356827 
	C395.118073,204.215073 393.447815,201.656693 394.742310,198.601395 
	C390.240204,201.627823 386.295807,201.483887 382.702118,199.362595 
	C380.712799,198.188370 377.957336,195.934372 379.716034,193.417450 
	C381.738037,190.523758 382.982605,194.885345 384.986298,195.038223 
	C385.691772,193.608231 383.943878,191.059052 386.871063,190.677567 
	C390.213257,190.242020 392.055084,192.323868 393.425476,194.919403 
	C397.847931,192.468155 400.532043,185.733109 399.398315,180.213684 
	C399.056915,178.551758 397.354309,176.220764 400.121948,175.726593 
	C402.671448,175.271362 402.992065,177.980667 403.227020,179.957458 
	C403.798218,184.763596 402.009827,189.150497 400.398529,193.487900 
	C399.651489,195.498856 399.544556,197.021500 400.317505,199.116440 
	C405.742126,213.819763 406.604034,228.746887 403.340027,244.204819 
	C401.463776,253.090591 395.400513,258.047424 389.119904,263.027008 
	C383.678619,267.341156 377.953552,271.341522 371.555511,274.279114 
	C367.793945,276.006165 365.127167,278.592743 367.084900,283.353363 
	C367.381775,284.075317 367.218933,285.000397 367.212219,285.831055 
	C367.135773,295.282745 368.623962,297.335480 377.823761,298.535004 
	C384.365723,299.387939 390.176727,302.444489 396.493774,303.918182 
	C399.986664,304.733032 403.159241,304.511200 406.718781,303.701477 
	C412.394012,302.410492 418.016327,301.753845 424.081055,304.547089 
	C428.776001,306.709442 434.612213,306.669220 439.745087,308.563629 
	C444.422241,310.289795 449.142303,311.940186 454.334534,310.919586 
	C456.409973,310.511597 458.297546,311.361572 459.570007,313.159058 
	C460.585999,314.594269 462.068634,315.154114 463.595551,315.892792 
	C470.677155,319.318878 475.466919,316.721771 480.439758,311.235168 
	C487.786560,303.129364 495.996460,295.796417 505.629028,290.310669 
	C507.850372,289.045593 508.643585,287.467499 508.364655,284.599854 
	C507.637543,277.124359 511.670410,271.041168 514.568542,263.550385 
	C518.015015,268.436462 512.236328,272.648041 516.410400,276.698456 
	C518.392700,273.017914 519.326599,269.381927 519.013184,265.715332 
	C518.744324,262.569550 514.649109,261.416473 511.940002,263.337891 
	C504.656036,268.503998 496.880310,269.620392 488.765778,265.653046 
	C486.459625,264.525543 485.148773,264.909485 483.004089,266.185333 
	C477.649872,269.370453 472.267303,272.895020 465.334747,269.915985 
	C459.057465,267.218536 455.624207,263.525269 455.948822,256.761475 
	C456.212860,251.259949 453.997467,248.136703 449.822174,244.818954 
	C434.063995,232.297363 424.049225,215.999771 419.543610,196.300674 
	C418.546234,191.939957 416.770203,187.783737 416.653961,183.194351 
	C416.587524,180.571213 414.094910,179.863907 412.215454,178.945267 
	C404.889893,175.364761 397.522644,171.867615 390.130432,168.426392 
	C387.781464,167.332901 385.573029,166.367416 385.687225,163.169785 
	C385.760529,161.115356 383.943024,160.491440 382.477509,159.756409 
	C378.608856,157.816055 374.695129,155.965607 370.825409,154.027344 
	C368.960358,153.093185 367.125641,151.751617 367.762848,149.461502 
	C368.377625,147.251862 369.760956,145.054153 372.053894,144.268158 
	C374.285217,143.503311 374.972687,145.837128 376.189514,147.124756 
	C380.927582,152.138504 387.726105,153.485519 393.471619,156.710037 
	C401.846497,161.410248 411.019318,160.861282 419.926544,160.500595 
	C426.669159,160.227570 432.336395,156.174377 437.047638,151.269226 
	C440.196564,147.990738 441.667084,148.084045 443.669739,151.956650 
	C448.645752,161.579010 453.026733,163.865067 464.054016,162.625854 
	C465.748566,162.435425 468.166290,161.232971 468.504059,163.978745 
	C468.784790,166.260666 466.350647,166.798248 464.591553,166.925858 
	C455.445404,167.589264 446.896545,166.360413 441.065369,158.160629 
	C439.320038,155.706329 437.602600,156.714798 435.981415,157.944580 
	C429.670898,162.731628 422.542664,165.114044 414.348999,166.222031 
	C420.850342,169.118423 427.362549,171.990768 433.850281,174.917419 
	C441.586853,178.407440 449.514923,181.491623 456.902283,185.726105 
	C458.695892,186.754227 460.939636,187.435471 460.725006,190.014938 
	C459.146240,191.888580 456.831482,189.410843 455.546722,191.392670 
	C459.753143,197.366531 460.133301,197.372070 464.676300,191.863876 
	C465.625275,190.713287 466.672333,189.609955 467.823029,188.666351 
	C470.329468,186.611023 472.154358,187.471603 473.134094,190.298538 
	C473.672516,191.851959 473.497101,194.045685 475.182190,194.644257 
	C480.969482,196.700027 480.817535,201.310745 480.859375,206.189148 
	C481.825073,203.231216 483.099060,200.334167 483.697388,197.303696 
	C485.354462,188.911163 490.337311,182.103897 494.188141,174.778366 
	C495.717957,171.868210 498.154877,169.365845 501.506897,168.255600 
	C504.835663,167.153061 505.368744,165.098877 503.764618,161.616608 
	C498.876404,163.775940 494.805084,163.168015 490.846405,159.152420 
	C487.942413,156.206680 485.159271,154.052612 487.385742,149.515808 
	C488.108673,148.042694 487.636780,146.554489 486.163971,145.590942 
	C484.813171,144.707199 483.709045,143.455490 484.102478,141.891739 
	C484.832031,138.992203 483.287659,137.790161 481.179291,136.366287 
	C477.880035,134.138138 478.082336,131.578598 481.474365,129.374603 
	C483.664124,127.951790 486.330719,127.272545 488.517517,124.837112 
	C485.858032,122.706177 483.185486,120.800484 480.791656,118.592560 
	C477.001190,115.096420 477.551361,112.855652 482.322601,111.471893 
	C484.549774,110.825974 486.861359,110.375259 488.980438,109.473564 
	C492.739166,107.874176 496.133026,106.381096 498.030212,101.794724 
	C503.609528,88.307198 518.348145,83.881706 530.889648,91.383957 
	C535.024902,93.857582 538.993835,96.580124 542.536255,99.914246 
	C548.632385,105.651817 550.400452,112.783989 546.422363,120.233299 
	C543.390503,125.910675 542.452820,131.198318 544.770264,137.365128 
	C546.437744,141.802475 543.551636,145.807297 538.870422,147.015121 
	C528.846008,149.601593 520.251770,154.827713 512.448059,161.481400 
	C508.036438,165.242844 507.232788,171.055374 504.435028,175.745621 
	C502.415955,179.130371 500.309296,181.847046 496.431305,183.482422 
	C491.419403,185.595978 491.147400,191.123734 489.326050,195.494171 
	C484.793640,206.370102 482.275177,218.015808 476.716492,228.491241 
	C475.484314,230.813248 474.136444,233.175674 470.651489,232.898666 
	C469.674622,229.923492 472.644623,228.879150 473.309113,226.873062 
	C474.320099,223.820770 478.221252,220.467285 474.587799,217.607010 
	C470.991150,214.775650 468.403778,218.771500 465.793121,220.931458 
	C462.474579,223.677124 461.100494,227.008942 461.298248,231.424469 
	C461.610901,238.404648 461.311707,245.410583 461.348938,252.405212 
	C461.377869,257.840057 465.435333,264.319672 470.109070,265.199921 
	C475.130829,266.145752 479.368256,264.071899 482.865112,260.153168 
	C490.310364,251.809753 498.303192,243.618881 501.715515,232.829025 
	C504.176575,225.047119 512.567444,221.264679 512.361328,212.833725 
	C515.089905,213.020340 515.600281,214.272720 515.234314,215.366867 
	C513.900269,219.355072 516.322815,220.486649 519.374329,221.051682 
	C526.223267,222.319901 532.565796,225.620285 539.726562,225.769699 
	C542.809387,225.834030 544.872620,228.255188 545.332947,231.225967 
	C545.777344,234.094116 547.141113,232.763245 548.727295,232.208344 
M525.358337,261.254425 
	C523.843933,262.036346 523.502625,263.383545 523.285400,264.967682 
	C522.788757,268.590088 522.059143,272.179810 521.481445,275.791962 
	C520.616394,281.200500 519.151245,285.966949 513.520508,288.707458 
	C510.082611,290.380707 509.335175,293.527313 512.004761,297.052307 
	C515.056213,301.081421 518.322144,304.911163 522.828735,307.217896 
	C541.199829,316.621490 560.321533,321.417511 580.971436,316.037659 
	C582.258118,315.702454 583.952148,315.854950 584.466919,314.500366 
	C586.849609,308.230011 592.346924,303.209442 591.906006,295.801239 
	C591.580078,290.324371 591.775330,284.842529 591.242737,279.346344 
	C590.803284,274.811920 589.625244,269.987030 591.961304,264.891571 
	C595.910950,267.504456 597.749146,270.780396 599.089722,274.345337 
	C601.368286,280.405151 603.443726,286.538757 604.722473,292.905792 
	C605.615845,297.354309 608.958496,297.247925 612.083862,296.414032 
	C615.140076,295.598572 615.955444,293.326996 614.832886,290.132629 
	C611.799377,281.500854 609.242249,272.713623 604.999756,264.521088 
	C603.606689,261.831024 602.036438,260.816040 599.155762,261.187775 
	C595.532410,261.655365 591.915100,261.989105 588.221008,261.962921 
	C578.150330,261.891541 568.178223,259.360016 558.024109,261.104095 
	C550.214600,262.445465 543.831299,260.269379 540.402832,252.400620 
	C540.302612,252.170578 539.841858,252.097656 539.354614,251.854279 
	C534.552856,254.282166 529.966858,257.209778 526.001770,260.998688 
	C526.001770,260.998688 526.030090,260.972290 525.358337,261.254425 
M127.677002,286.034698 
	C121.825371,301.446289 120.220047,317.806274 116.545563,333.806488 
	C128.760620,333.827515 132.543091,329.964752 131.661163,318.798553 
	C131.569809,317.641907 131.190170,316.505280 131.128189,315.349548 
	C130.842270,310.018280 130.882706,304.709290 131.960281,299.506012 
	C132.659760,299.507843 133.359253,299.509644 134.058746,299.511475 
	C134.058746,309.023804 134.058746,318.536133 134.058746,328.467041 
	C136.447891,327.984039 137.495880,327.979736 138.347214,327.568420 
	C148.445770,322.689026 159.410004,320.420227 169.947830,316.875153 
	C177.912140,314.195862 186.172684,315.863586 194.098267,313.967285 
	C199.904434,312.578064 205.657288,310.536072 211.543930,310.005249 
	C222.776566,308.992340 233.935913,307.468384 245.119843,306.114227 
	C247.004852,305.885986 249.873825,305.673157 249.406799,303.008850 
	C248.017059,295.080566 248.709229,287.105408 248.308426,279.163330 
	C247.717987,267.464203 243.417572,256.438538 242.267212,244.845688 
	C241.920059,241.347214 241.592163,237.717270 237.031677,236.849701 
	C236.147736,236.681549 236.030869,235.656158 235.843613,234.825745 
	C234.710770,229.802582 231.155670,226.915268 226.776672,224.897430 
	C221.035980,222.252060 215.856400,218.512741 209.866592,216.349503 
	C208.480530,215.848923 207.137131,215.014709 207.544708,211.944336 
	C219.752045,215.800797 230.621506,221.200745 239.606262,230.938995 
	C240.535080,223.252899 238.029709,217.308655 233.148010,211.473160 
	C245.581665,207.563980 256.039276,202.307144 261.265900,189.388397 
	C257.328217,190.964813 254.367493,188.353775 250.952087,188.722275 
	C250.062881,190.702606 252.598892,193.271484 249.822723,194.632782 
	C248.047714,194.662628 247.633820,193.219208 247.067673,192.089493 
	C245.033218,188.029953 242.591263,184.308731 239.043716,181.377701 
	C237.894257,180.427963 236.490295,179.155243 237.759323,177.621521 
	C239.280289,175.783371 240.808044,177.289352 242.025330,178.337250 
	C244.663712,180.608521 247.643066,182.135101 251.461487,183.530853 
	C244.309830,174.305786 239.909897,173.831619 227.777969,180.493011 
	C229.025009,183.482269 231.182434,185.787323 233.504059,187.932541 
	C236.976624,191.141251 236.847900,194.698105 234.247391,198.155716 
	C232.873779,199.982071 231.917297,201.700546 231.968018,204.006104 
	C232.018448,206.297546 231.447510,208.589981 228.982697,209.193390 
	C226.505310,209.799850 223.739319,210.731979 221.572067,208.145950 
	C219.976257,206.241806 218.259171,204.439194 216.665924,202.532990 
	C214.347183,199.758743 212.368271,199.691360 210.615097,203.085037 
	C209.235367,205.755829 207.421341,208.105331 205.482742,210.420685 
	C200.461456,216.417801 194.934784,221.872910 189.243835,227.234650 
	C181.493011,234.537094 173.244644,241.253830 164.961823,247.871750 
	C154.984985,255.843185 144.450211,263.142334 132.857559,268.753479 
	C129.116119,270.564453 127.817291,274.085480 128.651978,277.993164 
	C129.212280,280.616302 128.920654,282.915802 127.677002,286.034698 
M581.657776,321.592560 
	C577.877136,322.142273 574.110107,322.827240 570.312683,323.210754 
	C564.263306,323.821686 563.629150,324.528717 564.905701,330.277527 
	C567.958740,344.026306 571.350403,357.711517 573.916565,371.550110 
	C574.764954,376.125122 576.331665,379.210693 580.314758,381.402924 
	C585.991272,384.527191 592.193604,386.691406 597.370422,390.730011 
	C599.120361,392.095184 600.462341,391.102356 601.734314,389.878571 
	C605.564880,386.192993 609.582642,382.680481 613.183716,378.782959 
	C619.164673,372.309570 618.966248,372.279053 613.007874,365.345398 
	C610.828857,362.809692 608.794617,361.217529 605.356018,362.908813 
	C600.040588,365.523163 596.736572,369.458588 597.088318,373.041138 
	C600.626221,373.170227 601.589478,367.523254 606.760803,369.222626 
	C602.759521,373.521484 599.174805,377.372833 595.422607,381.404053 
	C590.698853,376.826324 591.834534,371.818848 592.479309,367.088776 
	C590.758362,366.036163 589.262451,366.185669 587.796204,366.439209 
	C585.189026,366.890076 582.532837,367.123444 581.643799,363.932251 
	C580.740784,360.690277 583.541809,359.910400 585.642212,358.534332 
	C590.589783,355.292999 596.107605,353.459991 601.629761,351.642120 
	C605.021057,350.525726 606.255310,348.513947 606.023621,344.924377 
	C605.509216,336.954712 606.350159,328.986053 606.493896,321.022400 
	C606.622131,313.918304 607.801758,306.344299 602.336426,300.181976 
	C601.695251,299.459015 601.998962,297.939911 601.758667,296.812500 
	C600.532959,291.062286 598.927979,285.436462 596.611084,279.982849 
	C595.367920,280.582794 595.487244,281.255920 595.578491,281.896088 
	C597.106873,292.618408 596.560913,302.939514 590.783569,312.604736 
	C588.601807,316.254730 586.660217,319.815857 581.657776,321.592560 
M542.214783,328.599884 
	C544.936157,326.490631 549.082825,326.587921 551.600830,322.614655 
	C540.473816,322.030701 531.094360,317.866516 521.591187,313.974152 
	C515.170959,311.344543 510.236298,307.306885 506.927856,301.222778 
	C505.336761,298.296753 503.420624,297.493347 500.629272,300.085327 
	C498.692322,301.883942 496.230438,303.110596 494.251160,304.871613 
	C488.527527,309.964020 481.533173,314.054596 479.963928,322.550873 
	C479.709503,323.928345 478.427429,324.314911 477.188782,323.952576 
	C474.424835,323.144043 473.542267,324.546539 473.363190,326.952606 
	C472.919128,332.918213 472.294525,338.876831 472.072571,344.850525 
	C471.897888,349.551941 471.485504,354.051514 467.441803,358.092896 
	C476.445709,361.421753 484.992462,364.457977 493.919983,366.222198 
	C496.806732,366.792694 497.298492,364.229706 497.807465,362.052643 
	C499.120544,356.436127 502.354431,352.433289 507.212433,349.167267 
	C518.270508,341.732849 530.428467,336.207916 542.214783,328.599884 
M506.285126,97.791222 
	C504.052216,101.489990 501.726898,105.136871 499.612671,108.902298 
	C497.541870,112.590485 494.884796,115.187325 490.403564,115.621941 
	C489.118896,115.746529 487.371552,115.410019 486.402832,117.108475 
	C488.990356,118.775208 491.351501,120.695274 494.029114,121.927696 
	C498.082764,123.793427 500.043152,127.048920 499.565491,131.053848 
	C499.033569,135.513718 501.466095,137.397003 504.582581,139.204727 
	C507.763672,141.049927 511.239349,142.011444 514.744019,143.108932 
	C521.640686,145.268600 528.526733,143.519836 535.392212,143.892365 
	C540.589172,144.174377 541.482239,141.836975 539.145630,136.932648 
	C536.906555,132.232971 535.864258,127.634422 539.866943,123.113373 
	C542.386658,120.267281 543.304932,116.815079 542.655457,112.886009 
	C541.286011,104.600235 533.981262,97.294022 525.847717,95.127869 
	C519.024719,93.310745 512.510315,90.857216 506.285126,97.791222 
M589.886719,257.700165 
	C592.360352,257.444275 594.850037,257.292267 597.304565,256.912872 
	C604.426880,255.812012 608.201599,251.556885 607.710388,245.321548 
	C607.227295,239.189194 602.700195,235.495468 595.895752,235.073669 
	C586.981750,234.521088 578.017883,234.861359 569.147034,233.403381 
	C565.494751,232.803085 563.466553,236.075897 563.668762,238.485138 
	C564.167542,244.426651 562.700806,249.843033 560.203613,255.890381 
	C570.413635,256.500916 579.742188,257.058777 589.886719,257.700165 
M202.278122,148.144424 
	C191.453644,149.179626 181.069778,151.576385 171.351059,157.163055 
	C173.170227,159.747360 175.460861,159.712814 176.996689,160.951782 
	C177.950638,161.721344 178.778091,162.562088 178.323792,163.892044 
	C177.896606,165.142685 176.627625,166.057327 175.629837,165.572083 
	C173.132843,164.357742 171.626556,165.830719 169.535507,166.635635 
	C167.527328,167.408630 164.534607,166.394363 164.349152,169.650452 
	C164.185043,172.532242 165.475739,175.044144 168.089951,176.313416 
	C170.691696,175.693588 169.196228,172.180908 172.429504,171.846542 
	C173.600525,174.127777 174.901550,176.569305 176.118332,179.052139 
	C178.596237,184.108261 186.050873,185.706772 190.317261,182.066162 
	C197.120743,176.260605 197.412399,176.349991 204.552979,181.858276 
	C206.843201,183.624954 210.006180,183.568878 211.848892,181.463333 
	C214.104477,178.886017 211.290314,177.821579 209.515015,176.253723 
	C206.686813,173.756073 203.794525,175.783325 200.987381,175.505203 
	C194.312088,174.843842 192.425781,172.183228 194.941772,166.039963 
	C195.171478,165.479065 195.111938,164.799683 195.182648,164.209259 
	C194.585571,163.832581 194.201172,163.494263 193.752930,163.324677 
	C192.223694,162.746216 190.152863,162.480270 190.581421,160.242798 
	C190.958389,158.274628 192.970596,158.987213 194.341354,158.658188 
	C198.535416,157.651459 202.735001,156.655258 206.888489,155.497330 
	C208.904480,154.935303 210.733276,154.323395 211.829544,156.818893 
	C210.726791,159.654892 206.984512,159.335571 205.972336,162.286713 
	C206.985153,164.416946 208.068451,166.647339 209.107346,168.898239 
	C209.747589,170.285385 210.322266,171.877243 212.273575,171.314407 
	C214.123444,170.780838 214.895767,169.209320 214.677994,167.408829 
	C214.319824,164.447495 213.528763,161.531891 213.270157,158.566483 
	C212.718521,152.240799 209.102158,149.099762 202.278122,148.144424 
M455.505219,238.072266 
	C455.315826,232.769302 454.658234,227.387375 458.384033,222.804230 
	C458.761658,222.339676 459.143280,221.246582 458.928314,221.026749 
	C455.652618,217.676971 456.482086,211.560089 450.851257,209.675217 
	C447.238281,208.465820 445.574554,205.477188 447.336761,201.694092 
	C448.231964,199.772385 447.975189,198.579575 446.367920,197.463318 
	C440.264618,193.224594 433.763428,189.734146 426.265320,186.280151 
	C428.378479,198.659851 431.656769,209.698212 436.838745,220.209061 
	C440.398010,227.428513 444.220001,234.352966 451.003754,239.119888 
	C452.595062,240.238068 454.129852,241.464203 455.505219,238.072266 
M260.303253,126.796104 
	C264.388519,120.387436 264.228821,113.261093 263.816803,106.087547 
	C263.641632,103.037422 263.447510,99.471504 260.318115,98.416756 
	C257.345520,97.414856 256.348114,101.193222 254.396378,102.763046 
	C250.995071,105.498795 250.344574,110.003296 248.145157,113.556190 
	C244.872925,111.811989 246.538147,109.118279 245.770142,106.275520 
	C242.544662,112.635376 242.002502,118.896645 240.297287,124.804619 
	C239.046738,129.137299 239.724960,133.172256 241.270264,137.277893 
	C242.357941,140.167725 244.616241,140.766785 247.174973,140.899628 
	C249.427750,141.016586 252.398453,141.772232 253.352829,139.089371 
	C254.891373,134.764389 258.556458,131.775330 260.303253,126.796104 
M257.473969,181.973083 
	C259.228821,183.402267 260.313751,185.606491 262.776794,186.624176 
	C267.631561,174.297165 266.249481,162.232224 262.712921,149.358337 
	C256.536682,153.160049 250.793304,156.476593 243.563721,152.319962 
	C245.474060,159.252747 242.517349,165.155731 241.746628,171.273926 
	C247.676102,173.943665 252.554764,177.378632 257.473969,181.973083 
M169.695831,146.116531 
	C171.793091,144.768875 174.009964,143.573608 175.962250,142.041245 
	C179.810562,139.020706 184.155838,135.855255 188.662491,135.528488 
	C194.015396,135.140396 195.617218,131.677704 198.485214,128.940430 
	C197.155640,127.009605 195.561752,127.429504 194.123444,127.238510 
	C188.152695,126.445633 183.091995,129.135529 177.943283,131.428238 
	C166.869965,136.359161 160.837357,145.216583 158.472931,156.823410 
	C157.803986,160.107269 158.791031,162.587372 162.490112,163.714188 
	C161.014313,156.747513 162.759705,152.361603 169.695831,146.116531 
M219.908859,134.332520 
	C204.306717,130.689423 193.425079,134.701324 187.241486,146.704224 
	C196.479736,143.642212 205.490402,141.570770 213.906219,147.612778 
	C216.864685,144.876190 219.523346,142.613129 221.945129,140.119980 
	C224.235550,137.762085 224.022079,135.697479 219.908859,134.332520 
M460.982605,403.760345 
	C465.615540,407.955963 472.435333,408.850586 476.535858,413.996918 
	C469.483795,414.053528 464.512115,408.812561 457.464966,406.630310 
	C461.460602,411.590302 467.742401,411.744080 471.371460,415.655945 
	C469.519562,418.311768 467.076294,415.642212 465.535461,417.295105 
	C465.276093,421.428345 465.656921,422.256317 468.271454,423.285858 
	C472.810699,425.073364 479.692291,423.647278 482.506378,419.957397 
	C485.289978,416.307404 486.468414,412.321167 483.139435,408.095856 
	C474.145996,409.661987 470.121887,401.005768 463.270050,398.371063 
	C461.477478,399.704315 460.616608,401.208191 460.982605,403.760345 
M514.420837,226.450073 
	C510.342285,226.575699 509.759430,229.035629 510.722198,232.264191 
	C512.006836,236.572113 513.732422,240.702911 515.908691,244.663162 
	C517.646606,247.825684 519.535461,248.061584 522.187988,245.746826 
	C526.302734,242.156052 530.168762,238.201523 535.436646,236.170670 
	C535.907043,235.989304 536.121826,235.144836 536.993774,233.742081 
	C528.569946,233.602737 522.317810,228.879150 514.420837,226.450073 
M451.789062,392.681152 
	C446.061707,388.358612 443.930115,388.750946 441.874573,394.506073 
	C439.524780,401.085175 445.214935,413.456543 451.789307,415.446442 
	C454.870209,416.378998 458.194885,416.498199 461.207489,414.207062 
	C449.821259,405.126923 449.776062,404.970520 456.029388,397.000122 
	C455.452881,395.097595 453.556458,394.424805 451.789062,392.681152 
M467.861511,214.184219 
	C470.276794,211.499405 475.040802,211.872772 475.940094,206.916580 
	C477.189606,200.030334 471.680634,198.247162 467.156830,192.988693 
	C468.008331,199.223129 464.689972,198.888458 461.765533,199.645554 
	C458.397217,200.517532 454.072449,200.114395 452.370758,204.625458 
	C453.008972,205.038773 453.494019,205.594742 453.787964,205.507416 
	C459.255157,203.883606 460.571655,206.247025 460.652802,211.447769 
	C460.723999,216.007050 462.952179,216.735703 467.861511,214.184219 
M249.686539,209.321243 
	C248.031403,210.097733 246.358276,210.838562 244.726593,211.661560 
	C243.317963,212.372009 240.631195,212.994080 241.676682,214.784256 
	C243.544113,217.981796 241.988220,222.744736 246.237167,224.685623 
	C247.099533,225.079544 248.354568,225.329788 248.982620,224.311707 
	C250.147171,222.423996 252.164658,222.114410 253.884567,221.175919 
	C258.885468,218.447083 262.448456,207.640427 260.017517,203.093491 
	C256.664734,204.853607 253.243652,206.503128 249.686539,209.321243 
M205.461273,198.192627 
	C207.095642,196.031342 208.286285,193.788422 205.237961,191.904587 
	C202.739059,190.360306 201.579666,185.333282 197.262360,188.296722 
	C193.082413,191.165863 188.794266,193.994385 185.254761,198.380264 
	C190.026566,202.014145 195.883698,202.856308 200.339783,207.125351 
	C202.153381,203.922012 203.609207,201.350586 205.461273,198.192627 
M554.254761,235.298523 
	C547.231384,236.578400 542.736816,247.417084 546.741455,253.412918 
	C548.943542,256.709900 550.994202,257.033630 554.364502,254.299057 
	C557.779846,251.527908 556.860474,247.949127 557.932983,244.712418 
	C559.325928,240.508820 558.673828,237.681305 554.254761,235.298523 
M164.697479,184.490417 
	C163.242432,184.465134 161.107193,184.035049 162.066208,186.539856 
	C163.036865,189.075165 162.816498,192.152084 164.885834,194.168320 
	C166.838104,193.827286 167.815018,192.562332 168.709732,191.457413 
	C171.299545,188.259186 173.601669,188.788315 176.032806,191.582397 
	C177.121017,192.833084 178.380722,193.934097 179.555939,195.109680 
	C180.649796,196.203842 181.728088,196.409241 183.060455,195.382233 
	C185.871185,193.215698 188.846848,191.235992 191.447968,187.082428 
	C181.889771,188.572601 173.829315,185.377426 164.697479,184.490417 
M491.786285,148.756027 
	C490.649750,151.548752 492.851013,152.628586 493.917267,154.095520 
	C497.073425,147.926697 495.842499,141.774170 494.864868,135.620758 
	C494.442291,132.961151 496.220459,129.193375 493.408752,127.878784 
	C490.503357,126.520348 488.140259,129.804245 485.714630,131.406586 
	C485.328857,131.661423 485.090607,132.139603 484.572937,132.772903 
	C489.705261,136.581253 489.963562,142.733337 491.786285,148.756027 
M518.899719,255.050659 
	C518.703064,259.501190 520.828857,258.839050 523.377075,257.047119 
	C527.966736,253.819656 531.319153,249.038788 536.628540,246.683838 
	C541.373779,244.579117 542.265076,242.842224 541.958679,237.218277 
	C540.570984,238.306656 540.536438,241.089920 538.231506,240.669601 
	C534.580017,240.003647 532.459412,242.581345 529.770447,244.059662 
	C525.244141,246.548096 523.088623,251.334457 518.899719,255.050659 
M220.699265,187.125916 
	C224.631424,186.324844 225.771164,191.033661 229.685318,191.995361 
	C227.222061,187.697601 224.992676,184.225647 221.865845,181.456284 
	C219.449875,179.316544 216.994492,178.062073 215.893250,182.669632 
	C215.466721,184.454208 214.161102,184.888977 212.624237,185.194305 
	C210.272675,185.661514 207.938217,186.214813 205.596497,186.731567 
	C210.456207,188.025452 211.942505,193.458984 216.348663,195.395950 
	C217.695908,192.543854 218.880371,190.036377 220.699265,187.125916 
M502.090240,152.504807 
	C502.202698,154.249939 501.040253,155.956772 501.861694,157.831680 
	C506.435364,157.071655 504.171326,151.186020 507.995148,149.689636 
	C510.314636,152.220825 508.370636,155.152832 509.057648,157.981842 
	C513.297302,155.841690 515.946472,152.278534 519.765869,148.901291 
	C514.967285,146.833450 510.194977,147.020813 506.054413,145.096207 
	C504.751495,144.490555 504.014099,145.891205 503.625153,147.002487 
	C503.080200,148.559570 502.676697,150.166153 502.090240,152.504807 
M166.974487,197.745926 
	C163.782242,202.030838 165.319138,206.129944 166.863632,210.828873 
	C169.383881,208.421295 171.197403,206.514954 173.189819,204.818787 
	C178.720367,200.110489 178.684464,199.551697 172.479340,195.607788 
	C172.007980,195.308212 172.557037,193.858627 170.841446,194.078186 
	C169.857071,194.995453 168.654205,196.116287 166.974487,197.745926 
M490.877014,258.618958 
	C494.445190,262.628693 499.726959,263.147491 505.073853,259.817780 
	C504.353455,259.289001 503.791748,258.657684 503.091919,258.396942 
	C496.201538,255.829620 495.626678,254.133774 499.901062,247.918930 
	C501.208038,246.018631 502.874573,244.365509 504.377716,242.600250 
	C505.264282,241.559082 507.077637,241.003464 505.811066,237.912262 
	C499.347168,243.909424 496.388214,251.914719 490.877014,258.618958 
M606.386475,356.042267 
	C605.713196,354.958374 604.531372,354.068146 603.493713,354.520294 
	C598.802673,356.564514 593.761719,358.045868 589.312439,361.766632 
	C595.999939,363.532837 603.865662,361.009033 606.386475,356.042267 
M220.107956,198.272415 
	C220.854294,201.946930 223.252319,204.067841 226.535339,205.511322 
	C229.922409,198.129883 229.272293,196.379578 221.936401,192.768677 
	C220.174286,193.875916 220.166199,195.700287 220.107956,198.272415 
M255.630386,149.326828 
	C257.710602,147.637375 260.526917,146.477798 260.332520,141.946823 
	C254.988586,143.757401 250.030563,145.907593 244.292801,144.537323 
	C246.738113,150.148560 248.151016,150.727066 255.630386,149.326828 
M648.491333,437.043213 
	C650.050049,435.506195 652.012817,433.735565 649.382812,431.846130 
	C647.264404,430.324249 645.311523,431.566742 644.081482,433.707092 
	C643.011047,435.569824 641.016907,437.055969 641.241821,439.633636 
	C644.202576,440.312469 645.875061,438.381470 648.491333,437.043213 
M512.189819,248.642212 
	C506.909729,247.178284 508.563477,252.345154 506.460999,254.051758 
	C509.047058,256.862701 511.307770,257.424133 513.800781,254.530960 
	C515.858887,252.142532 515.378418,250.376846 512.189819,248.642212 
M575.591187,230.546982 
	C578.371948,229.571960 581.492859,229.262833 584.148926,226.385132 
	C579.010986,226.055969 574.648254,225.686783 569.875610,228.383652 
	C571.966492,229.267487 573.431274,229.886703 575.591187,230.546982 
M248.617783,236.448608 
	C249.083221,233.533646 249.742859,230.535782 245.632767,229.352142 
	C244.514557,233.050217 246.042770,235.968872 247.600250,239.161392 
	C247.952881,238.278152 248.194519,237.672882 248.617783,236.448608 
M202.159286,169.291824 
	C202.451355,170.385422 202.520279,171.869751 204.219925,171.346313 
	C205.533188,170.941864 205.274048,169.725464 204.740402,168.879745 
	C203.552612,166.997406 203.430664,164.296661 200.801788,163.093246 
	C200.176865,165.448853 201.391434,166.970016 202.159286,169.291824 
M593.817810,217.454788 
	C594.577698,216.332336 595.902893,215.468201 595.645081,213.434082 
	C593.193787,215.070999 589.572754,214.912323 589.641907,218.898819 
	C591.433716,219.760147 592.333496,218.609314 593.817810,217.454788 
M469.311310,397.793518 
	C470.752472,400.408966 472.958160,401.847382 476.326355,402.604004 
	C473.486816,398.912079 473.486816,398.912079 469.311310,397.793518 
z"/>
<path fill="#000000" opacity="1.000000" stroke="none" 
	d="
M289.181152,272.054138 
	C294.620178,266.496399 295.216309,266.507172 300.434540,271.980988 
	C300.664398,272.222107 300.895050,272.462402 301.126434,272.702057 
	C306.059662,277.811127 306.059692,277.811096 312.181488,274.818970 
	C314.025085,277.014618 312.317657,278.708618 310.985077,279.798492 
	C305.925690,283.936340 302.566254,289.606873 297.776825,293.974030 
	C292.810822,298.502197 288.648010,298.176483 285.058044,292.439423 
	C280.662689,285.415344 279.622986,277.137268 276.983185,269.456665 
	C273.637848,259.723450 273.841339,259.790863 264.321472,264.047546 
	C261.994385,265.088043 260.384369,267.820557 256.309875,267.099670 
	C260.653992,257.758484 271.906281,259.585114 277.444336,253.192947 
	C276.927399,250.475494 274.825775,248.858887 273.426239,246.891312 
	C270.371796,242.597107 269.352966,237.870071 269.388336,232.766998 
	C269.444763,224.621048 274.476685,219.365875 283.357025,219.214539 
	C287.093903,219.150833 289.266571,217.676468 291.156067,214.963776 
	C294.031830,210.835098 297.544891,207.747879 302.908875,207.515945 
	C304.487549,207.447693 305.605957,206.347794 306.827759,205.470932 
	C321.022644,195.283417 334.391907,199.406891 340.427765,215.807755 
	C340.769928,216.737473 341.152802,217.652206 341.652405,218.917587 
	C344.692200,217.239426 345.579071,214.497482 346.253296,211.643295 
	C347.077942,208.152313 348.710022,205.216614 352.593781,204.871292 
	C356.846405,204.493210 358.837402,207.606735 360.053619,211.025162 
	C363.227386,219.945694 359.122711,226.878448 353.430298,233.139648 
	C349.471466,237.494049 349.324310,237.360260 350.957397,242.237564 
	C352.489075,241.963226 354.066101,241.680756 355.687988,241.390259 
	C355.494324,245.793671 353.142029,247.774551 349.105499,246.457367 
	C345.551208,245.297562 344.166168,246.796005 343.337921,249.798080 
	C341.071594,258.012756 335.426849,263.509827 328.417999,267.682220 
	C326.530121,268.806061 323.837646,269.442902 321.694672,269.117371 
	C314.199615,267.978699 306.754669,266.450470 299.349091,264.807129 
	C295.638489,263.983734 292.660248,261.825439 291.093384,258.160736 
	C290.370911,256.470917 289.202026,255.329285 287.346863,255.354156 
	C284.931793,255.386536 282.099884,254.078445 280.222992,256.283691 
	C278.153046,258.715881 279.006989,261.622101 280.059723,264.328644 
	C281.435150,267.864838 282.838776,271.390045 284.198029,274.838196 
	C286.659363,275.264709 287.646423,273.508270 289.181152,272.054138 
M304.227020,217.838455 
	C303.677673,219.591049 303.266663,221.324051 303.486115,223.223434 
	C304.097107,228.511505 301.998871,230.039246 296.808655,228.306091 
	C293.196045,227.099731 289.567993,225.929260 285.907684,224.879074 
	C282.504547,223.902679 278.946777,224.382721 276.561676,226.753204 
	C274.143707,229.156357 273.958252,232.641571 274.979919,236.104599 
	C275.990051,239.528351 277.609955,242.563812 279.775177,245.352081 
	C283.492889,250.139603 287.706482,253.573746 293.603882,249.947906 
	C299.169861,246.525833 301.768341,241.326416 300.019562,234.816498 
	C299.698395,233.620911 298.630890,232.389359 300.297546,230.803192 
	C305.201172,233.599167 310.124146,231.706711 315.262787,230.392487 
	C325.971069,227.653839 337.076843,223.550598 345.608734,235.084045 
	C356.818817,222.062531 358.663025,215.822235 352.815063,210.532639 
	C349.480469,212.570572 349.297668,216.830734 346.752502,219.382919 
	C344.787384,221.353470 342.929169,224.164917 339.850525,223.653427 
	C336.822235,223.150299 336.473450,219.949387 335.628174,217.425583 
	C332.575378,208.310791 321.908813,202.960251 313.731934,206.440460 
	C308.939667,208.480118 306.676941,212.783463 304.227020,217.838455 
M303.272552,241.734528 
	C298.720184,248.876129 301.261261,254.102478 307.684845,258.357971 
	C308.635590,258.987854 309.283142,260.056519 310.161438,260.817810 
	C314.751862,264.796539 323.375305,266.360870 327.407654,263.945831 
	C335.394989,259.162170 339.898376,252.210281 340.521667,242.834396 
	C340.972778,236.048584 338.530182,233.138611 331.974243,231.819138 
	C324.632751,230.341568 318.106750,232.699356 311.815033,235.786545 
	C308.923798,237.205215 304.387878,236.328857 303.272552,241.734528 
M301.153229,285.656769 
	C306.055817,280.982330 301.265015,278.578766 298.733276,275.781799 
	C297.031403,273.901642 295.131927,270.979584 292.203186,273.231476 
	C289.363922,275.414612 285.743958,277.684998 286.801331,282.271637 
	C287.608765,285.774139 288.047028,290.085205 291.838409,291.402069 
	C295.768188,292.767029 297.684052,288.567261 300.321014,286.531586 
	C300.450470,286.431641 300.552490,286.296204 301.153229,285.656769 
M296.168213,223.330490 
	C301.492676,221.358948 299.288422,216.296860 301.706360,212.466949 
	C297.500031,212.844299 296.287659,215.474396 294.490509,217.284424 
	C292.146118,219.645660 292.539703,221.635818 296.168213,223.330490 
M302.618591,261.969879 
	C302.867493,258.953247 299.650513,258.128906 298.707886,255.818542 
	C298.256958,254.713333 297.142090,253.995590 295.859650,254.915619 
	C294.356842,255.993759 294.986359,257.211395 295.814667,258.345795 
	C297.368134,260.473297 299.580200,261.496765 302.618591,261.969879 
z"/>
<path fill="#000000" opacity="1.000000" stroke="none" 
	d="
M382.050140,39.991444 
	C385.266083,40.122120 389.219604,37.745888 390.123199,43.699463 
	C383.115509,42.728737 376.870697,44.512875 371.219086,47.403412 
	C357.700439,54.317554 344.345856,61.846340 337.810059,76.621552 
	C332.239319,89.215080 330.443787,102.259392 334.501465,115.917145 
	C337.551941,126.184692 341.792694,135.391968 350.343353,142.322327 
	C353.645813,144.998993 357.542786,146.426392 361.001709,148.697250 
	C362.246887,149.514725 363.905640,150.316772 362.940460,152.142502 
	C362.047394,153.831802 360.347168,153.290146 358.932434,152.778824 
	C352.725800,150.535583 347.412323,146.905502 342.793365,142.223282 
	C321.667206,120.807602 323.725647,82.744896 342.618835,62.368183 
	C353.589722,50.535816 366.833405,44.317795 382.050140,39.991444 
z"/>
<path fill="#000000" opacity="1.000000" stroke="none" 
	d="
M135.931274,102.969429 
	C129.451523,111.348320 125.211723,120.114197 126.905907,130.761948 
	C127.763924,136.154449 133.109634,138.972519 139.192749,137.128143 
	C141.734116,136.357605 144.268234,135.444809 145.455521,132.624893 
	C145.938995,131.476578 146.926636,130.709076 148.271118,131.444565 
	C149.491898,132.112381 149.600220,133.309570 149.274109,134.505264 
	C146.215286,145.720505 131.507370,148.919785 125.005943,143.862579 
	C123.833755,142.950790 122.262222,141.926163 122.420189,140.362213 
	C123.426895,130.395340 120.387146,119.986801 125.569221,110.475945 
	C128.442551,105.202431 131.477875,100.058441 136.677551,96.628075 
	C140.558746,94.067543 142.366425,94.457237 144.441086,98.808128 
	C145.692154,101.431778 146.640182,103.810516 150.437927,103.149956 
	C152.033051,102.872513 153.748398,104.419884 153.813629,106.256035 
	C154.062698,113.265701 151.243240,119.642273 149.317429,126.315010 
	C146.435791,120.850571 150.734375,115.041161 148.383530,109.303787 
	C144.138290,111.630531 146.930420,117.701492 142.541855,119.663071 
	C139.957321,118.064079 140.953278,115.823456 141.491776,113.859177 
	C142.245209,111.110840 142.955505,108.398079 142.723038,105.514771 
	C142.303680,100.313545 140.701614,99.621979 135.931274,102.969429 
z"/>
<path fill="#000000" opacity="1.000000" stroke="none" 
	d="
M135.520416,196.623413 
	C134.257477,197.041183 133.307785,197.352234 132.334106,197.478745 
	C131.906525,197.534302 131.430084,197.213745 131.018982,197.078186 
	C129.509720,194.240036 132.043900,192.019882 132.069427,189.203522 
	C130.349640,190.296402 128.853821,191.296402 127.309334,192.214539 
	C125.753731,193.139297 124.011742,194.514008 122.349281,192.870575 
	C120.683716,191.224075 122.130402,189.420868 122.924118,187.854050 
	C124.670242,184.407196 126.988792,181.148972 129.997406,178.928513 
	C136.169327,174.373413 137.760956,168.179535 137.781479,161.140884 
	C137.799637,154.915558 141.383621,150.037033 143.626236,143.855087 
	C146.211655,146.868088 145.030365,149.227356 143.962738,151.229889 
	C140.497360,157.729874 141.432129,164.507278 142.743698,171.158463 
	C143.990402,177.480759 145.549515,178.041489 151.702194,175.809952 
	C152.330917,175.581940 152.956482,175.331573 153.546204,175.908035 
	C153.642639,176.205139 153.848740,176.751984 153.806885,176.771652 
	C147.949295,179.526810 148.759659,185.514786 147.129272,190.338394 
	C146.353302,192.634125 145.161987,194.789474 143.979477,197.405121 
	C141.198700,194.857529 143.339432,192.685532 143.277786,190.043503 
	C140.612640,192.331192 138.218292,194.386459 135.520416,196.623413 
M131.755310,185.199600 
	C137.774567,179.647736 137.774567,179.647736 137.911377,176.467743 
	C133.228638,179.572281 129.557205,183.258408 126.596680,188.301651 
	C128.982162,188.050049 130.047791,186.726974 131.755310,185.199600 
M142.378769,180.428436 
	C138.888840,183.405472 137.159790,187.334579 135.215881,192.709900 
	C139.254181,189.595230 141.523788,186.783691 143.757812,183.943588 
	C144.902908,182.487854 145.760559,181.036240 142.378769,180.428436 
z"/>
<path fill="#000000" opacity="1.000000" stroke="none" 
	d="
M459.396667,71.696243 
	C456.628357,67.108719 454.274017,62.700035 451.484863,58.586098 
	C443.158783,46.305202 430.665985,41.863064 416.623993,40.435390 
	C414.503204,40.219769 411.910522,41.083755 410.488770,38.440559 
	C417.715820,33.269764 445.140167,41.642277 452.030670,50.762173 
	C470.578552,75.311134 471.302734,94.180756 463.853394,100.337631 
	C462.115295,98.639824 462.291840,96.639885 462.493073,94.430573 
	C463.191406,86.764488 463.170868,79.147507 459.396667,71.696243 
z"/>
<path fill="#000000" opacity="1.000000" stroke="none" 
	d="
M344.990784,268.671051 
	C348.193695,269.466766 347.669037,267.132599 347.723785,265.714020 
	C347.864471,262.068817 347.858673,258.425323 347.067505,254.799576 
	C346.704773,253.137283 345.624023,251.332809 346.991211,249.531464 
	C349.191071,249.163544 350.006439,250.638290 350.393524,252.296783 
	C351.562469,257.305725 352.236786,262.219055 351.283783,267.520874 
	C350.038727,274.447174 348.296997,280.978790 344.747284,287.128723 
	C343.109802,289.965698 341.694641,290.976776 339.034973,288.928253 
	C333.115753,284.369202 327.241119,279.751190 321.407928,275.082672 
	C320.375671,274.256500 319.437103,272.966003 320.441467,271.621948 
	C321.374817,270.372955 322.773163,270.782227 324.095764,271.246582 
	C331.280365,273.768951 331.285400,273.754608 334.953400,267.071747 
	C337.768036,261.943634 338.777405,261.845367 342.685120,266.301544 
	C343.341461,267.050018 344.031158,267.769196 344.990784,268.671051 
M336.264160,280.109619 
	C337.680817,281.415009 338.705048,283.296753 340.931244,283.381561 
	C347.534943,277.252686 347.016754,274.403076 337.704742,268.627747 
	C337.197784,272.496399 331.803284,274.883972 336.264160,280.109619 
z"/>
<path fill="#000000" opacity="1.000000" stroke="none" 
	d="
M363.718750,87.351929 
	C357.918671,82.725990 357.288208,89.465469 354.553131,91.255676 
	C351.790344,89.923363 353.183533,88.231850 353.833435,86.627289 
	C355.889069,81.551765 357.849365,76.435051 360.029572,71.413734 
	C361.028595,69.112839 361.523621,65.074203 364.689484,65.940048 
	C368.235931,66.909966 373.077606,67.214958 374.500031,71.723267 
	C375.538971,75.016159 373.680359,77.863022 371.129120,79.957954 
	C369.633850,81.185783 367.825073,82.031815 366.083344,83.094734 
	C367.707733,86.060974 371.180786,87.369225 371.576233,91.122627 
	C367.482147,93.106422 366.271301,89.128258 363.718750,87.351929 
M367.269562,71.272209 
	C362.738556,72.233536 363.190521,76.553711 360.958313,79.991180 
	C364.424622,79.606590 366.774231,78.513329 368.694458,76.720947 
	C370.795654,74.759659 371.117401,72.757935 367.269562,71.272209 
z"/>
<path fill="#000000" opacity="1.000000" stroke="none" 
	d="
M351.590820,122.851242 
	C350.678619,121.725128 349.988403,120.854263 348.721649,119.255936 
	C347.816376,120.554764 347.211884,121.539925 346.490265,122.430130 
	C345.371307,123.810547 344.290161,125.877716 342.202026,124.984962 
	C340.175964,124.118767 340.832275,121.833672 340.841064,120.068108 
	C340.855957,117.086235 340.758362,114.075989 341.140015,111.133698 
	C341.387451,109.225761 340.951263,105.895836 343.919006,106.251198 
	C346.612549,106.573730 346.013885,109.453186 345.607758,111.589653 
	C345.300293,113.207161 344.867279,114.827240 345.672699,116.786858 
	C348.307373,115.450089 348.312805,111.155983 351.902527,111.106277 
	C354.178375,112.627975 352.933716,115.580681 354.764648,117.483620 
	C357.220154,114.823296 357.219849,110.983582 359.290527,108.213463 
	C360.070496,107.170044 360.617798,105.569977 362.255951,106.248131 
	C364.186340,107.047241 363.599091,108.727234 362.904327,110.062683 
	C360.764465,114.175591 358.534210,118.242233 356.291687,122.300659 
	C355.162811,124.343590 353.623932,124.605629 351.590820,122.851242 
z"/>
<path fill="#000000" opacity="1.000000" stroke="none" 
	d="
M369.492065,123.821732 
	C365.396881,126.645172 364.106903,126.287270 364.003754,122.117592 
	C363.884796,117.308830 362.944519,112.300949 365.534790,107.344345 
	C370.053406,110.041359 367.379852,114.253731 368.600189,117.538445 
	C371.511078,116.811295 371.626160,112.865067 374.532776,112.169838 
	C377.584351,113.933632 375.255981,117.754822 377.852142,119.895203 
	C380.477386,118.699127 380.789246,115.802864 381.906433,113.577354 
	C382.990692,111.417587 383.645630,109.042305 384.587433,106.495705 
	C387.596893,107.769150 387.391998,109.779442 386.498871,111.880219 
	C385.152802,115.046478 383.871246,118.266037 382.206696,121.265633 
	C378.799957,127.404686 376.596191,127.354195 372.155762,121.284134 
	C370.818054,121.473106 370.478302,122.749931 369.492065,123.821732 
z"/>
<path fill="#000000" opacity="1.000000" stroke="none" 
	d="
M399.724365,122.390045 
	C401.286560,122.295052 402.521362,122.392784 402.655029,123.945282 
	C402.759705,125.161583 401.640900,125.544037 400.754974,125.966423 
	C396.940521,127.785133 391.721771,124.551193 390.662842,119.728889 
	C389.182404,112.987152 398.384125,104.384605 404.934143,106.450417 
	C407.570740,107.281975 410.145264,108.621338 409.755554,111.892899 
	C409.387695,114.980904 407.047974,116.334213 404.029388,116.313004 
	C400.966583,116.291489 398.210388,117.060661 395.714447,118.650078 
	C396.008820,121.236191 397.392822,122.154495 399.724365,122.390045 
z"/>
<path fill="#000000" opacity="1.000000" stroke="none" 
	d="
M458.434662,113.120224 
	C454.265747,113.927635 451.914185,116.846481 449.525421,119.853127 
	C447.890533,121.910934 447.017822,124.955902 443.749390,125.525543 
	C442.938721,122.031403 451.616150,99.375305 454.420044,97.637024 
	C456.861206,102.695740 452.419312,106.716248 452.329376,111.255325 
	C452.789886,111.345802 453.218079,111.547958 453.331421,111.434746 
	C455.514832,109.254654 457.885406,107.012497 461.133575,108.807312 
	C464.173615,110.487122 463.455750,113.782837 463.125549,116.509720 
	C462.776978,119.388634 462.109711,122.322853 459.091614,124.866325 
	C456.796448,120.777649 461.086700,116.799568 458.434662,113.120224 
z"/>
<path fill="#000000" opacity="1.000000" stroke="none" 
	d="
M420.813080,74.508865 
	C423.048767,79.370399 419.491821,82.282661 416.831238,84.626816 
	C413.333740,87.708336 412.352692,89.580437 416.855713,92.254829 
	C418.032104,92.953499 419.126862,94.299652 418.080200,96.364182 
	C415.210297,97.123375 413.038483,95.271545 411.385437,93.456566 
	C408.930634,90.761185 406.736633,89.989487 404.025635,92.973190 
	C402.889709,89.509132 407.148834,74.621017 409.650909,72.686607 
	C412.114594,74.410744 410.584656,76.512794 410.199768,78.499847 
	C409.840302,80.355553 408.462555,82.180237 410.190002,84.431778 
	C413.703339,83.485886 416.266663,81.432724 417.552338,77.939186 
	C418.132996,76.361404 418.407532,74.669746 420.813080,74.508865 
z"/>
<path fill="#000000" opacity="1.000000" stroke="none" 
	d="
M400.486389,77.366943 
	C398.631104,82.890366 399.023743,89.074539 394.283905,93.377296 
	C391.670624,90.551727 394.003174,88.875359 394.744019,85.994408 
	C391.886688,88.979378 390.018066,91.782784 386.989502,93.308266 
	C382.454681,95.592438 379.131531,93.777100 378.769897,88.665352 
	C378.430298,83.865082 380.634460,78.397110 384.111755,75.918343 
	C387.419006,80.862549 378.984070,86.100075 384.740204,91.223335 
	C389.576172,87.572006 392.847565,82.649399 396.359772,77.933563 
	C397.388672,76.552032 398.278778,73.534409 400.486389,77.366943 
z"/>
<path fill="#000000" opacity="1.000000" stroke="none" 
	d="
M437.240295,122.542297 
	C438.903839,121.962654 440.544312,120.726341 441.275543,122.934334 
	C441.852386,124.676315 440.417206,125.534668 438.913605,126.156052 
	C434.278656,128.071472 430.331360,127.120728 427.921875,123.429314 
	C425.339508,119.473030 425.992157,113.846367 429.728943,110.234276 
	C432.026581,108.013260 434.915436,106.586723 438.097443,106.084167 
	C440.283234,105.738953 442.032227,106.728096 442.867523,108.846916 
	C443.474487,110.386513 443.018860,111.794792 441.785248,112.905243 
	C440.002716,114.509811 438.857666,114.014397 437.356171,112.176125 
	C435.969421,110.478325 434.251221,111.990776 433.084259,113.081444 
	C431.210541,114.832695 430.694794,117.142448 431.787994,119.464790 
	C432.749237,121.506828 434.357788,122.950943 437.240295,122.542297 
z"/>
<path fill="#000000" opacity="1.000000" stroke="none" 
	d="
M516.532288,164.547974 
	C515.241272,165.487274 514.695007,167.020767 513.026611,166.661346 
	C511.433685,165.021194 512.608215,163.902298 513.814392,163.006073 
	C521.144531,157.559540 528.774109,152.592087 537.179382,148.931259 
	C538.494324,148.358566 540.254456,147.353104 540.977539,149.405838 
	C541.700378,151.457764 539.678223,151.613129 538.330688,152.150955 
	C530.607056,155.233566 523.636597,159.656799 516.532288,164.547974 
z"/>
<path fill="#000000" opacity="1.000000" stroke="none" 
	d="
M411.409058,122.190170 
	C412.269653,119.306229 413.277802,116.834724 413.778534,114.264366 
	C414.561798,110.243965 415.604675,107.142159 420.735748,109.485313 
	C421.671997,109.912827 423.050018,109.269051 423.899261,110.554794 
	C424.162323,112.760193 422.074921,113.438927 420.900848,114.626137 
	C418.444763,117.109711 415.978912,119.512581 415.191284,123.105240 
	C414.937897,124.260925 414.476685,125.510109 413.080933,125.471733 
	C411.222321,125.420631 411.288635,123.913742 411.409058,122.190170 
z"/>
<path fill="#000000" opacity="1.000000" stroke="none" 
	d="
M429.756226,81.997604 
	C430.935516,79.877365 431.576996,77.591324 434.410278,77.962486 
	C436.092163,80.047737 434.386627,81.736435 433.865906,83.506897 
	C433.363098,85.216316 432.432068,86.816933 432.632141,88.696800 
	C434.220215,90.077446 435.654022,87.127098 437.551300,88.991585 
	C437.294342,92.813675 434.090790,94.291840 431.049652,94.260315 
	C427.307556,94.221527 427.119720,90.828491 427.677368,87.912086 
	C428.042755,86.001137 428.956970,84.195129 429.756226,81.997604 
z"/>
<path fill="#000000" opacity="1.000000" stroke="none" 
	d="
M477.631470,106.149452 
	C476.529785,107.703766 476.742493,109.843231 474.587219,110.105270 
	C472.752747,105.515991 474.652069,98.102875 478.720703,95.046112 
	C481.154358,98.977959 477.892273,102.317108 477.631470,106.149452 
z"/>
<path fill="#000000" opacity="1.000000" stroke="none" 
	d="
M436.359558,65.352272 
	C440.676025,65.334206 439.675842,67.847000 438.864899,70.072525 
	C438.373505,71.421043 437.234467,72.474442 435.773010,71.399414 
	C433.088837,69.424934 434.404297,67.419899 436.359558,65.352272 
z"/>
<path fill="#000000" opacity="1.000000" stroke="none" 
	d="
M131.925812,297.024170 
	C129.177872,292.145844 129.767349,287.268585 131.222412,282.335754 
	C131.695694,287.270203 135.071365,291.954407 131.925812,297.024170 
z"/>
<path fill="#000000" opacity="1.000000" stroke="none" 
	d="
M555.274902,286.214600 
	C554.322144,289.989746 553.371765,293.348450 552.658386,296.756744 
	C551.902649,300.367157 550.205811,303.146759 546.959656,305.089020 
	C544.797424,306.382721 542.768250,308.420776 540.334167,306.114471 
	C537.791260,303.704926 539.254333,301.161102 540.908752,298.982513 
	C544.380066,294.411255 546.572388,289.308624 548.307617,283.855133 
	C549.714417,279.434113 550.431580,275.204529 549.072754,270.688995 
	C548.613464,269.162567 547.993591,267.064697 550.238098,266.499237 
	C552.295593,265.980804 553.260681,267.927277 553.536133,269.498108 
	C554.482117,274.892822 559.314880,279.882172 555.274902,286.214600 
z"/>
<path fill="#000000" opacity="1.000000" stroke="none" 
	d="
M525.987854,261.012024 
	C530.670288,261.752899 539.858093,270.024719 540.764954,274.411865 
	C541.342224,277.204712 540.233032,279.358002 537.756836,280.596497 
	C535.168091,281.891266 534.343445,279.658691 533.249634,278.026733 
	C532.513794,276.928894 531.784180,275.774811 530.828735,274.885468 
	C526.966064,271.290131 525.050110,267.027954 525.981201,261.335022 
	C526.030090,260.972290 526.001770,260.998688 525.987854,261.012024 
z"/>
<path fill="#000000" opacity="1.000000" stroke="none" 
	d="
M499.034668,348.968689 
	C500.612488,351.978790 499.463074,353.406128 496.452393,352.302765 
	C487.632294,349.070343 481.091888,342.968689 477.467133,334.394012 
	C475.395233,329.492798 482.748352,323.770233 488.542877,325.847351 
	C496.497406,328.698700 504.007233,332.721405 512.137512,335.179535 
	C513.238708,335.512451 514.425781,336.230713 513.816162,337.711395 
	C513.176697,339.264587 511.757996,339.301727 510.431000,338.803528 
	C506.856018,337.461304 503.298615,336.066437 499.774200,334.596649 
	C495.525940,332.824982 491.318848,330.954559 486.052704,328.676453 
	C489.814484,335.645203 494.838165,339.772888 500.250000,343.566376 
	C503.980255,346.181061 503.862915,346.993286 499.167328,348.707092 
	C493.052460,343.416565 487.486053,338.362488 481.919647,333.308441 
	C481.621979,333.652008 481.324280,333.995605 481.026611,334.339172 
	C486.072998,340.305603 490.153015,347.373383 499.034668,348.968689 
z"/>
<path fill="#000000" opacity="1.000000" stroke="none" 
	d="
M476.998901,347.784058 
	C475.306702,344.055267 473.899780,340.640961 474.745178,336.508148 
	C476.728424,337.736603 486.255371,356.749817 486.134674,359.190338 
	C481.590424,356.458069 479.715454,352.004547 476.998901,347.784058 
z"/>
<path fill="#000000" opacity="1.000000" stroke="none" 
	d="
M527.986694,109.047897 
	C531.976257,111.793221 531.883240,114.470619 528.622253,117.281586 
	C528.496582,117.389931 528.382935,117.515617 528.246338,117.607452 
	C525.978699,119.132362 525.671936,123.590714 521.604187,122.318550 
	C519.756409,121.740662 515.897705,111.809738 516.739990,109.703484 
	C517.780457,107.101746 518.991089,104.225487 522.883423,106.364471 
	C524.453064,107.227043 526.419495,107.337158 527.986694,109.047897 
z"/>
<path fill="#000000" opacity="1.000000" stroke="none" 
	d="
M525.209229,128.875534 
	C527.357544,129.586472 529.596497,129.243301 530.721924,131.312317 
	C527.209290,134.756073 517.651184,131.244888 514.079712,124.726234 
	C518.713745,124.141510 521.254150,128.089005 525.209229,128.875534 
z"/>
<path fill="#000000" opacity="1.000000" stroke="none" 
	d="
M510.808350,118.517937 
	C509.469604,120.293839 508.256104,121.884430 506.233582,120.240250 
	C504.654449,118.956490 504.404755,117.222649 505.269318,115.375168 
	C505.852661,114.128586 506.720795,112.953423 508.208069,113.251152 
	C510.866791,113.783379 511.248932,115.835991 510.808350,118.517937 
z"/>
<path fill="#000000" opacity="1.000000" stroke="none" 
	d="
M179.676544,170.705566 
	C183.257874,170.934967 185.921265,173.797714 189.670898,173.001617 
	C190.841705,172.753006 191.788589,173.855835 191.872925,175.216385 
	C191.964462,176.693314 191.351990,177.644180 189.895691,178.269196 
	C183.785629,180.891479 180.506393,178.635086 179.676544,170.705566 
z"/>
<path fill="#000000" opacity="1.000000" stroke="none" 
	d="
M319.368439,218.468216 
	C318.252563,224.877548 313.875732,220.156067 311.353271,221.574600 
	C310.078522,219.540970 310.578613,218.144043 312.160645,216.610168 
	C314.244537,218.092529 316.980225,216.835526 319.368439,218.468216 
z"/>
<path fill="#000000" opacity="1.000000" stroke="none" 
	d="
M326.988312,240.006104 
	C327.241150,238.630569 327.971985,236.765335 329.243774,237.248276 
	C332.214203,238.376236 332.118134,235.170135 333.623871,234.544495 
	C335.916931,235.056931 336.373322,236.948120 336.041199,238.420288 
	C335.404266,241.243256 336.288818,243.542603 337.265015,246.048569 
	C338.706177,249.748245 333.874390,254.003082 328.398224,254.035248 
	C323.173248,254.065918 320.726196,250.950287 321.925232,245.348969 
	C322.000031,244.999496 321.979950,245.019318 321.979950,245.019318 
	C324.694824,244.322220 322.318817,239.298920 326.802612,240.256790 
	C327.877167,242.894592 328.515350,245.083878 329.296021,247.221115 
	C329.846710,248.728867 330.785828,249.985199 332.577606,248.791046 
	C334.119873,247.763168 333.922150,246.235458 332.997833,244.911514 
	C331.472839,242.727127 329.344940,241.209244 326.988312,240.006104 
z"/>
<path fill="#000000" opacity="1.000000" stroke="none" 
	d="
M313.064209,251.611023 
	C315.343597,253.314194 314.341888,254.584869 312.992065,255.816040 
	C311.327576,257.334290 309.719696,256.889984 308.041687,255.765152 
	C305.715210,254.205627 305.153534,252.318878 306.653137,249.842392 
	C309.028992,249.226440 310.737213,250.944016 313.064209,251.611023 
z"/>
<path fill="#000000" opacity="1.000000" stroke="none" 
	d="
M322.009827,244.989349 
	C317.532959,244.172256 316.412109,241.412781 319.049347,237.075653 
	C321.722290,238.812790 322.065613,241.431107 322.003906,244.620483 
	C321.979950,245.019318 322.000031,244.999496 322.009827,244.989349 
z"/>
<path fill="#000000" opacity="1.000000" stroke="none" 
	d="
M324.697083,260.584961 
	C325.914978,256.353363 326.554810,256.206451 329.576141,259.235626 
	C328.551239,261.223267 326.854950,261.266022 324.697083,260.584961 
z"/>
</svg>