<svg version="1.1" id="Layer_1" xmlns="http://www.w3.org/2000/svg" xmlns:xlink="http://www.w3.org/1999/xlink" x="0px" y="0px"
	 width="100%" viewBox="0 0 590 570"  xml:space="preserve">
<path fill="#000000" opacity="1.000000" stroke="red" stroke-width="0.5"
	d="
M705.000000,470.539368 
	C699.498047,468.749329 695.229797,465.065857 692.426270,458.804382 
	C690.958496,461.971161 692.190735,463.682404 692.945068,465.375427 
	C694.297668,468.411194 694.380798,471.499359 693.667847,474.659882 
	C693.215759,476.664154 692.602234,478.705597 690.115479,478.882690 
	C687.461914,479.071564 686.923157,477.029938 686.451233,474.989258 
	C686.236328,474.059601 685.834839,473.173096 685.298889,471.640472 
	C682.672913,473.804901 680.382751,475.643494 678.148315,477.547546 
	C675.744873,479.595551 673.370117,479.936523 671.184448,477.364716 
	C668.803833,474.563477 665.245239,474.567200 662.173035,473.609955 
	C659.915100,472.906433 658.497498,474.866150 658.109619,477.034027 
	C657.506592,480.404144 654.837097,481.129150 652.488281,482.915680 
	C648.713379,485.786926 643.771118,485.796143 640.498840,489.149170 
	C638.869751,490.818542 636.824768,491.909546 634.703613,490.427032 
	C632.057312,488.577454 632.487488,485.757568 633.471252,483.185760 
	C634.333923,480.930145 636.407166,479.282318 638.579834,480.451416 
	C642.803223,482.723938 645.092651,477.929779 648.708496,478.231018 
	C649.459167,478.293579 649.804810,476.637054 649.478821,475.631714 
	C648.939331,473.968109 647.478943,473.995331 646.160217,474.240723 
	C641.550049,475.098572 636.895142,475.071777 632.238098,475.309174 
	C626.040161,475.625061 620.769226,472.024323 614.745300,471.751221 
	C613.295898,471.685516 611.666992,470.738831 610.361572,471.413879 
	C605.822083,473.761322 601.606995,472.132263 597.363342,470.707916 
	C587.027954,467.239014 576.216248,466.472900 565.517029,465.151245 
	C561.946228,464.710175 558.190491,464.462646 554.929443,466.910767 
	C554.232178,467.434235 552.903503,467.693115 552.099609,467.409882 
	C542.831726,464.143951 533.155396,465.889526 523.706543,464.959839 
	C517.444580,464.343781 511.321259,462.832825 504.929535,462.891846 
	C498.959106,462.946960 493.038055,463.781982 487.186554,463.920227 
	C478.482635,464.125916 469.699158,462.305786 461.004730,460.984558 
	C456.906647,460.361786 452.972107,459.067963 448.713196,460.014648 
	C445.996674,460.618500 443.276825,459.808167 441.308258,457.842834 
	C439.083038,455.621124 436.473511,454.716217 433.587891,455.210114 
	C414.735291,458.436707 395.798004,455.218109 376.926239,456.091309 
	C358.779053,456.930939 340.764679,454.549042 322.672546,454.183929 
	C314.873230,454.026550 307.124786,454.718750 299.342346,455.398499 
	C293.564209,455.903137 287.588196,456.149658 281.710266,455.914978 
	C273.407898,455.583527 265.128571,456.217590 256.783478,455.649841 
	C249.129929,455.129089 241.310638,456.621643 233.597275,457.512085 
	C224.390076,458.574982 215.214218,459.863800 206.093536,461.610565 
	C202.859207,462.229980 199.794067,463.413727 196.486877,463.888275 
	C193.514313,464.314850 191.540680,467.009644 191.069611,470.358795 
	C190.143112,476.945557 189.272659,483.545990 188.103729,490.091583 
	C186.379654,499.745758 186.292908,499.628845 196.329971,501.223419 
	C201.235962,502.002838 205.991226,501.264191 210.500687,499.767822 
	C215.259155,498.188812 217.094208,501.395050 219.604538,503.980621 
	C221.786041,506.227509 221.409958,508.417908 219.860199,510.733704 
	C219.583282,511.147522 219.145660,511.593628 219.140518,512.029053 
	C219.003189,523.667725 209.275284,526.849182 201.593521,531.593750 
	C194.356140,536.063782 186.139069,538.406372 178.268280,541.510803 
	C173.181870,543.516968 168.436676,547.099976 162.973206,548.800903 
	C155.874039,551.011292 148.947296,553.786987 141.178619,550.666260 
	C135.985565,548.580200 133.328033,545.227844 133.039352,539.917053 
	C132.814087,535.773010 132.994263,531.606995 132.994263,526.626526 
	C128.690369,533.057007 121.955437,533.234314 116.205109,535.352722 
	C109.882950,537.681763 103.432907,537.414307 97.159843,534.928101 
	C92.303329,533.003296 89.768120,527.534119 91.108749,521.055176 
	C94.075256,510.920441 96.400673,501.435211 95.885986,491.604401 
	C95.285393,491.528168 94.684807,491.451935 94.084221,491.375702 
	C93.066246,501.262299 92.048279,511.148926 91.030304,521.035522 
	C87.042992,524.524231 86.880875,529.590698 85.676727,534.200623 
	C84.753494,537.735107 84.094292,541.338257 83.306671,544.908447 
	C82.704620,547.637512 81.517624,550.509460 78.485023,550.317688 
	C75.591347,550.134705 74.364082,547.190308 73.824936,544.501404 
	C73.109146,540.931458 74.687302,537.696167 75.479538,534.299561 
	C78.789467,520.108826 83.334236,506.221649 85.890404,491.849396 
	C86.760918,486.954865 88.468063,482.450989 92.879013,479.669739 
	C96.228317,477.557892 97.581032,474.421417 97.490921,470.828491 
	C97.264000,461.781067 101.242950,453.736725 103.166901,445.209473 
	C103.385651,444.239960 103.831154,443.260803 103.789597,442.302704 
	C103.379250,432.841797 109.188797,426.388153 114.460045,419.582825 
	C117.197266,416.049011 119.458664,412.143066 121.881874,408.371094 
	C123.178299,406.353027 122.311104,405.315369 120.391586,404.047119 
	C115.966614,401.123413 116.207344,399.168701 120.972580,397.010834 
	C122.268555,396.423950 123.283386,395.786713 123.707924,394.368164 
	C124.509926,391.688416 126.383804,391.548157 128.391846,392.755035 
	C130.895599,394.259827 132.070679,392.880066 133.107193,390.953247 
	C137.334702,383.094513 142.868652,376.006042 148.135925,368.959137 
	C152.509033,363.108521 151.989044,358.629456 149.302032,352.372528 
	C144.580887,355.334106 141.961868,360.014008 138.298477,363.543488 
	C134.109985,367.578857 131.624344,373.020447 127.551872,377.268524 
	C121.992035,383.068085 116.944626,389.355530 111.513275,395.283325 
	C109.339569,397.655701 107.344704,399.880402 106.860466,403.286713 
	C106.491951,405.878937 104.792702,408.054535 102.075905,408.424042 
	C99.305908,408.800781 98.769493,406.136200 97.805908,404.257690 
	C94.831230,398.458588 93.580582,391.982880 91.798668,385.864227 
	C89.687469,378.614990 86.999535,371.491638 85.267799,364.054901 
	C83.576172,356.790314 81.932129,349.559875 80.588814,342.209656 
	C79.691177,337.298065 75.304153,333.537109 74.954391,328.131531 
	C74.830757,326.220581 72.981857,326.469879 71.353065,326.801605 
	C65.059296,328.083618 63.387623,327.042389 62.899273,320.903442 
	C62.646439,317.725006 61.121586,317.002563 58.422073,316.959259 
	C56.607147,316.930145 54.721760,316.852600 52.999874,316.347137 
	C48.837803,315.125305 47.253838,312.253632 48.999779,308.311707 
	C51.141853,303.475433 53.476532,298.640900 56.408287,294.260986 
	C59.487152,289.661285 60.973339,284.345917 63.932850,279.665436 
	C65.817528,276.684814 62.459396,273.334290 60.476681,271.009583 
	C57.526932,267.550995 55.313633,263.658691 52.824184,259.960144 
	C45.398502,248.927826 52.500698,230.203674 65.161652,226.878677 
	C66.275047,226.586273 67.472137,226.528839 68.631897,226.517349 
	C70.172646,226.502075 71.766983,226.707336 72.272141,228.487595 
	C72.840637,230.491089 71.641098,231.543228 69.935150,232.288605 
	C64.221497,234.785110 59.866131,238.370270 58.424492,244.946823 
	C56.964787,251.605820 59.065849,257.075378 62.423874,262.347656 
	C65.216881,261.897308 65.716286,259.904755 66.450439,258.362000 
	C69.303841,252.365768 74.047310,248.708221 80.364357,247.251938 
	C84.673409,246.258575 84.622742,244.002869 82.523796,241.193924 
	C79.703873,237.420135 78.554352,234.143692 82.717522,230.337952 
	C84.615295,228.603104 85.382515,225.631180 84.827530,222.888702 
	C83.025276,213.982895 86.354088,205.468170 86.604485,196.794067 
	C86.906044,186.347031 92.028275,177.365799 93.698753,167.434921 
	C94.644897,161.810165 97.752533,156.877838 100.101189,152.023575 
	C104.761070,142.392349 109.189812,132.379395 116.383995,124.108429 
	C123.765251,115.622391 130.724533,106.839539 139.373932,99.428474 
	C146.488159,93.332779 152.744553,86.210373 160.455963,80.589790 
	C158.721710,78.076851 156.148193,78.491982 154.015121,77.939636 
	C146.129471,75.897690 143.505585,69.927658 149.190598,64.202377 
	C155.873947,57.471687 157.961624,49.823154 158.031418,40.918308 
	C158.147217,26.143139 168.230499,18.658724 179.885437,13.400091 
	C192.797531,7.574244 206.758774,9.455683 220.237961,11.206383 
	C228.585373,12.290562 237.246582,22.125107 237.175980,32.638294 
	C237.164780,34.304695 237.344467,35.990376 237.153534,37.634350 
	C236.447006,43.717560 237.990692,48.101696 244.281281,50.769222 
	C249.096756,52.811226 248.686310,59.516338 244.016281,62.042877 
	C242.874390,62.660648 241.519363,63.023018 240.221848,63.191936 
	C232.271759,64.226921 231.546982,65.644577 236.480682,71.972328 
	C239.102371,75.334801 238.589813,78.361710 235.286789,79.868584 
	C227.150497,83.580444 224.152740,90.578369 221.659119,98.319328 
	C220.199646,102.849945 210.930222,107.705482 205.357391,106.883553 
	C202.880508,106.518242 201.548767,107.066940 200.550095,109.124786 
	C200.404617,109.424599 200.323654,109.809410 200.088181,110.004166 
	C190.126038,118.243477 196.310638,127.877495 198.339325,136.746216 
	C199.233139,140.653702 199.927475,144.332199 198.776535,147.871643 
	C195.522446,157.878937 198.150375,168.034744 197.527557,178.092545 
	C197.316086,181.507385 200.404449,181.114777 202.178741,179.678635 
	C208.042526,174.932434 214.692795,170.799805 217.041534,162.893600 
	C217.418549,161.624527 218.126694,160.457748 218.582230,159.207413 
	C221.977570,149.888260 227.619690,144.312775 238.419586,143.300522 
	C247.573013,142.442581 256.454071,138.884537 265.667755,137.390076 
	C269.073151,136.837723 271.787415,137.703384 273.487793,140.431564 
	C275.355103,143.427612 272.553162,145.481430 270.933105,147.320618 
	C267.552948,151.158051 263.276062,153.408295 258.008606,154.157242 
	C249.802933,155.323944 249.391968,156.339996 252.255478,164.099930 
	C255.447571,172.750275 253.369415,182.671936 247.438690,187.400391 
	C244.657776,189.617569 241.856522,189.799438 238.210129,189.444687 
	C229.602722,188.607285 222.414413,191.355682 224.478439,200.831253 
	C226.300995,209.198303 223.953217,215.544052 217.068405,219.758423 
	C211.145599,223.383926 206.459610,228.750381 199.865662,231.386322 
	C197.389877,232.376022 194.028000,231.953033 192.713959,235.191650 
	C204.679947,246.476608 196.241608,257.671234 192.614609,268.847229 
	C191.954025,270.882721 190.714783,272.726044 189.998215,274.748596 
	C187.231583,282.557404 187.052185,282.702332 178.647995,281.278534 
	C179.070450,289.253967 177.809143,297.248749 179.984344,306.297333 
	C183.701950,302.748535 186.135941,299.380676 187.903641,296.263092 
	C192.084015,288.890289 197.977768,283.032562 203.143860,276.546539 
	C212.326248,265.018005 221.675964,253.622482 230.997101,242.205124 
	C232.250397,240.669968 233.754456,239.340912 235.124374,237.899307 
	C237.747162,235.139282 239.689804,232.319275 238.128738,228.100143 
	C236.796951,224.500641 238.243515,221.488358 241.593216,219.685898 
	C244.326797,218.214966 250.893005,220.586548 253.215866,223.623398 
	C255.572266,226.704086 254.747299,229.032791 252.330734,231.955658 
	C248.008942,237.182922 245.253860,243.618118 240.133789,248.303268 
	C239.098434,249.250671 239.797546,250.408707 239.967728,251.560242 
	C240.736115,256.759430 239.843582,261.349915 235.396820,264.921661 
	C230.764771,268.642212 225.988342,273.026398 222.926224,277.470032 
	C219.548004,282.372314 215.245407,286.855713 212.518005,292.297577 
	C211.527847,294.273163 211.507019,295.570526 213.615860,296.823883 
	C217.638184,299.214478 217.428574,302.015106 215.146530,306.006653 
	C210.625092,313.915161 207.353607,322.542542 200.869751,329.263916 
	C198.230270,332.000122 195.296677,334.439362 193.040741,337.577911 
	C191.206543,340.129730 188.093033,341.196320 185.470871,339.860107 
	C182.095108,338.139832 176.859116,338.546478 176.312820,332.779572 
	C176.094131,330.471008 176.570038,327.619202 173.431763,325.790710 
	C168.638977,328.418243 164.242447,332.498718 158.335999,333.423920 
	C157.488892,333.556580 157.070908,334.350098 156.951950,335.284027 
	C155.723877,344.926086 155.741364,354.455414 159.231995,364.102844 
	C163.305847,361.753448 168.491211,361.010101 167.144211,354.470276 
	C166.863678,353.108185 168.142502,350.980225 169.646713,351.244263 
	C173.675369,351.951477 175.099442,349.297821 177.016235,346.767029 
	C178.994659,344.154816 181.836884,344.696533 182.362839,347.992950 
	C183.883789,357.525299 187.671951,366.432861 189.823868,375.823669 
	C191.951614,385.108978 193.095703,394.656372 195.844452,403.899048 
	C197.695694,410.123779 196.990631,417.497742 194.378723,423.993713 
	C192.600983,428.415039 192.594330,433.053558 193.819733,437.200195 
	C194.943146,441.001801 195.236160,444.115814 193.586151,447.685822 
	C192.942322,449.078857 193.149368,450.977448 193.318069,452.609680 
	C193.642288,455.746582 195.594360,456.717255 198.221832,455.199188 
	C202.888931,452.502716 208.460709,453.246582 212.823883,451.830719 
	C218.879181,449.865784 223.949478,450.055511 229.716248,450.932953 
	C232.431610,451.346100 234.699646,449.775146 235.674850,446.691345 
	C236.751236,443.287598 239.824875,442.692993 242.920319,442.411896 
	C245.788589,442.151398 246.856583,444.031952 248.042572,446.253113 
	C250.611679,451.064514 255.162323,448.313812 258.854584,448.593292 
	C261.885468,448.822693 263.871338,447.017365 264.568787,444.042023 
	C265.560242,439.812897 266.167084,435.539032 265.916656,431.166595 
	C264.897308,413.367798 266.397736,395.760406 269.911041,378.297913 
	C270.400604,375.864563 270.677155,373.355804 270.736115,370.874420 
	C270.918152,363.213898 270.869812,363.121948 263.290314,362.190094 
	C260.256714,361.817139 258.648682,360.389374 258.751495,357.390289 
	C258.978882,350.756653 258.458801,344.145782 259.635223,337.477844 
	C260.838013,330.660645 260.867523,323.635864 261.397766,316.700989 
	C261.498993,315.377289 261.462189,314.039124 261.627319,312.725037 
	C261.896484,310.583252 261.973999,307.990540 264.737762,307.692932 
	C267.821930,307.360840 267.644226,310.242371 268.332520,312.181671 
	C268.487213,312.617493 268.858063,312.976654 269.256287,313.555511 
	C272.363739,313.096558 274.407867,311.713898 274.843964,308.331360 
	C275.274811,304.989624 276.917297,303.000793 280.609680,304.193512 
	C282.673798,304.860291 283.672272,303.537720 284.830170,302.336426 
	C288.432098,298.599548 290.968689,294.061859 296.044312,291.421173 
	C298.715759,290.031281 299.936920,285.454681 301.346985,282.119995 
	C304.556976,274.528839 310.258209,271.660919 318.224396,272.202332 
	C321.329987,272.413391 321.976593,269.326263 323.319000,267.391846 
	C326.976410,262.121643 327.582947,262.024658 331.526672,266.909912 
	C333.525024,264.664642 333.562592,261.691895 334.644379,259.170685 
	C336.518494,254.802795 338.761566,254.447540 341.513977,258.092133 
	C343.688599,260.971649 347.115570,261.859833 350.206604,262.463409 
	C353.741791,263.153717 356.320282,264.426483 358.334900,267.397125 
	C361.851837,272.583069 368.159973,275.095215 370.840790,281.412598 
	C372.522430,285.375488 374.383026,288.435333 369.870209,292.576172 
	C377.640656,290.505096 377.431152,296.277924 379.769836,300.173828 
	C384.064087,307.327393 390.500977,312.835632 397.266937,317.639679 
	C401.907166,320.934326 405.267212,326.045258 411.262238,327.506470 
	C412.986328,327.926697 414.540131,329.076569 416.758453,329.124115 
	C418.671539,324.824768 420.302368,320.297272 422.376953,316.118683 
	C430.810547,299.131989 437.178070,280.487823 454.939240,270.048645 
	C457.034271,268.817322 459.185364,267.521790 458.413513,264.695892 
	C457.560944,261.574615 455.020325,260.996887 452.074615,261.152374 
	C448.749756,261.327850 445.411652,261.246033 442.079529,261.292389 
	C435.413208,261.385132 430.962067,257.448029 427.020782,252.802612 
	C425.236786,250.699905 426.197144,248.458496 427.497772,246.333878 
	C430.860626,240.840500 435.029205,236.267365 441.170776,233.824753 
	C441.942932,233.517639 442.655792,233.023621 443.448425,232.811523 
	C450.861603,230.827576 456.193359,227.471573 455.903564,218.403137 
	C455.765289,214.076004 458.791382,210.309280 461.808594,207.111816 
	C464.230377,204.545410 464.547302,202.422928 463.157166,198.751755 
	C460.415527,191.511276 458.341339,183.871124 457.167084,176.215866 
	C454.988220,162.011780 449.771759,149.705917 439.292755,139.516922 
	C434.324677,134.686356 430.439819,128.750015 425.393707,123.865395 
	C422.471069,121.036270 419.478943,119.760880 415.511047,120.981529 
	C411.482910,122.220695 407.312866,122.227631 403.138855,122.320732 
	C395.779205,122.484901 393.801819,124.857704 395.817657,132.078110 
	C398.115692,140.309113 399.083344,148.734207 400.441101,157.110168 
	C400.600433,158.093201 400.926178,159.108810 400.810760,160.065399 
	C400.493011,162.698990 400.386749,165.826401 396.750366,165.928711 
	C392.952026,166.035568 392.929565,163.076111 392.830414,160.284103 
	C392.531708,151.872299 388.893402,144.172333 387.562958,135.969147 
	C386.954376,132.216599 386.179871,128.462296 385.092926,124.824615 
	C384.149750,121.667976 382.941071,118.748428 378.871429,117.853020 
	C375.866486,117.191879 376.342773,114.743736 378.179138,112.863152 
	C381.007690,109.966393 385.786560,110.370399 389.202148,114.290649 
	C392.178436,117.706665 395.287842,118.061462 399.457825,117.060188 
	C403.746613,116.030388 407.986786,114.438522 412.683563,115.200470 
	C415.368622,115.636055 417.108856,114.276634 415.705688,110.896591 
	C411.686401,101.214325 409.874664,91.073158 411.274323,80.665863 
	C412.406372,72.248344 411.391571,64.128540 409.453094,56.034664 
	C408.405975,51.662537 405.350830,48.409389 402.144379,45.585033 
	C395.477020,39.712132 388.108063,34.946468 379.066528,33.514107 
	C378.251831,33.385040 377.310730,33.149742 376.599091,33.417561 
	C371.086182,35.492229 365.675934,35.435997 359.924805,32.821098 
	C367.937622,44.526440 378.884369,54.152168 380.793213,69.517838 
	C385.375885,66.671417 384.883362,62.372551 386.292389,59.067493 
	C386.999756,57.408291 387.026001,55.453079 388.787109,54.369125 
	C390.220520,53.486832 391.726868,52.430481 393.366608,53.688465 
	C394.942444,54.897442 394.726959,56.620571 394.051758,58.247505 
	C388.652283,71.257759 383.418030,84.341309 377.744202,97.231194 
	C374.451294,104.712006 370.187469,111.477211 361.727051,114.544510 
	C359.053101,115.513939 356.603333,116.345543 354.093445,115.279228 
	C350.116394,113.589630 348.265503,116.170456 346.193451,118.589775 
	C344.009735,121.139435 343.740570,124.117058 344.930359,127.032364 
	C346.005859,129.667694 348.442535,129.666672 350.910522,129.156082 
	C353.351532,128.651093 355.891846,128.714096 356.690613,131.550995 
	C357.449615,134.246643 354.956055,135.248917 353.120697,136.290390 
	C349.085602,138.580139 341.275299,136.224625 338.095459,131.820038 
	C337.135223,130.490036 336.300659,129.069336 335.361328,127.617218 
	C330.212524,129.014771 327.440552,133.212753 323.943207,136.410309 
	C318.454590,141.428482 313.054474,146.546371 307.719452,151.727631 
	C306.366882,153.041199 304.325348,154.691635 306.177460,156.789154 
	C307.754395,158.575073 309.865753,157.722260 311.660828,156.637482 
	C321.168610,150.891830 331.708038,146.955231 340.579529,140.076157 
	C342.041077,138.942810 343.761108,136.947021 345.827271,138.658859 
	C347.645081,140.164932 345.878174,141.957733 345.574371,143.676865 
	C344.286133,150.966019 342.889740,158.298492 345.825195,165.554749 
	C352.714142,162.312668 354.312439,154.498718 359.466583,149.733994 
	C361.169647,148.159607 362.191864,144.549255 365.127045,146.777359 
	C367.590393,148.647324 365.117493,150.795609 364.012970,152.814682 
	C356.725281,166.136322 345.924896,176.851685 337.246979,189.135406 
	C335.670410,191.367050 333.308533,192.705292 331.152283,194.246506 
	C329.735992,195.258804 328.244080,194.878220 327.110870,193.626999 
	C325.949677,192.344925 325.878876,190.865402 327.058472,189.568542 
	C329.182861,187.232941 331.359070,184.940475 333.593018,182.709457 
	C337.101196,179.205933 340.209137,176.033844 337.266602,170.196136 
	C335.464111,166.620209 335.418976,162.117294 336.238983,157.930756 
	C336.602448,156.074875 336.884308,154.291672 334.920959,152.723541 
	C332.058258,153.564346 328.991455,154.248657 326.378998,156.147598 
	C322.320831,159.097366 318.123901,161.881119 313.187225,163.024460 
	C308.378998,164.138077 306.340149,167.659241 305.405060,171.789581 
	C301.836914,187.550140 294.619293,202.079117 290.241455,217.567307 
	C287.531738,227.153809 285.484344,236.883759 283.135101,246.548355 
	C281.378723,253.773804 279.122620,260.909821 277.877899,268.219971 
	C276.104340,278.635864 271.141754,288.212006 270.239197,298.812805 
	C270.102631,300.416962 269.561798,301.951324 267.666168,301.880768 
	C265.624237,301.804779 264.821564,300.155243 264.817291,298.389862 
	C264.805573,293.585297 266.059967,288.863098 266.936127,284.236145 
	C267.852448,279.397522 268.349670,274.402100 269.831940,269.618927 
	C270.563873,267.256897 270.733978,264.766571 272.240723,262.630890 
	C272.885681,261.716736 273.532959,260.382080 273.359711,259.380219 
	C272.082123,251.991714 275.540009,245.402802 276.578674,238.421356 
	C277.073944,235.092300 277.667023,231.883606 278.946136,228.781464 
	C283.441589,217.878845 285.065887,206.126923 288.900391,195.027649 
	C289.606201,192.984604 289.821838,190.520035 291.126343,188.981339 
	C295.781311,183.490677 295.459137,176.129944 298.681610,170.143646 
	C299.478516,168.663208 299.641815,167.183670 298.272491,165.568069 
	C294.292480,160.872299 294.822327,154.500412 299.299744,150.375977 
	C307.705536,142.632904 316.595825,135.409592 324.415588,127.038383 
	C327.646179,123.579971 331.853912,121.443398 335.597656,118.684814 
	C338.102997,116.838730 338.856598,115.027000 337.693115,111.920418 
	C332.810211,98.882339 331.701202,85.325874 333.017822,71.561157 
	C333.331726,68.279556 333.907684,64.842232 335.245728,61.874470 
	C338.767975,54.062069 339.039886,45.532204 341.220825,37.437836 
	C342.389648,33.099766 344.430267,29.112120 347.623962,26.330606 
	C351.272552,23.152931 356.424469,24.055500 360.380219,25.639227 
	C364.253265,27.189859 367.850128,27.411947 371.539001,26.574047 
	C381.619415,24.284355 390.588409,26.761677 399.158875,32.014305 
	C409.088043,38.099682 416.932251,45.421734 418.818634,57.856754 
	C419.860962,64.727859 419.163879,71.469460 419.197723,78.255150 
	C419.240021,86.733131 419.294922,95.179588 421.859924,103.326508 
	C423.190277,107.551773 425.051025,111.242798 429.006653,114.288895 
	C433.639923,117.856857 437.131836,122.947586 441.259949,127.265129 
	C445.702148,131.911148 449.332397,137.329163 453.867340,141.990921 
	C461.555389,149.893875 462.878387,160.471390 465.321899,170.576172 
	C467.311737,178.805008 469.500946,186.991287 471.850098,195.124710 
	C472.769104,198.306519 475.579315,198.302994 478.038879,197.218536 
	C485.234589,194.045883 492.316437,194.479797 499.198303,197.814117 
	C503.731964,200.010712 508.640533,198.781494 513.357483,200.206299 
	C523.857178,203.377808 529.997986,210.471375 532.939880,220.332809 
	C536.356079,231.784195 536.097046,243.006424 527.450500,252.612335 
	C526.921570,253.199997 526.165344,254.241806 526.363281,254.724091 
	C528.589417,260.148773 527.959473,266.940308 532.205627,271.182648 
	C538.469666,277.440979 543.193787,284.914398 546.722046,292.508575 
	C549.994385,299.551819 550.981995,307.902740 551.943481,316.072266 
	C553.652893,330.596466 552.152283,344.985779 552.279602,359.404602 
	C552.435120,377.007996 555.381714,394.442719 554.664917,412.050781 
	C554.316223,420.617096 554.312622,420.616943 546.459290,429.006927 
	C548.941040,431.925171 549.375610,434.936829 549.034302,439.146088 
	C548.719727,443.024719 550.549561,447.525879 550.489075,451.990417 
	C550.465393,453.735687 552.451782,456.219269 554.246521,456.244263 
	C561.018311,456.338531 567.529053,458.984436 574.621460,458.565735 
	C575.117981,454.205231 575.461792,450.669250 570.341675,449.209290 
	C566.693848,448.169159 564.948853,444.715149 565.305725,441.487305 
	C565.677490,438.124084 569.444031,438.209595 572.230347,437.905090 
	C574.698792,437.635284 577.200928,437.888031 579.616821,436.932678 
	C581.357666,436.244263 581.784302,435.037018 581.710876,433.413147 
	C581.660645,432.302155 581.165588,431.461060 580.016968,431.268982 
	C578.441711,431.005493 576.941589,431.160919 576.305664,432.939209 
	C575.529541,435.109558 574.514282,437.139404 571.802063,436.656677 
	C569.364197,436.222778 568.701233,433.978424 567.790344,431.961212 
	C566.053528,428.115234 567.222351,423.393768 562.844177,420.110443 
	C560.823425,418.595032 564.027161,415.507355 566.486206,415.109375 
	C575.187866,413.700989 584.026245,411.733490 592.775696,413.276306 
	C599.077759,414.387543 605.342102,414.317169 611.616882,414.850159 
	C620.881836,415.637115 621.845093,416.754547 621.851379,426.357422 
	C621.851807,427.008698 621.536621,427.800995 621.804382,428.287689 
	C623.175354,430.779266 626.147461,433.143646 621.880249,435.708008 
	C619.573303,437.094391 617.419556,438.828522 615.193054,440.235474 
	C611.531128,442.549500 607.781311,444.937805 603.126526,446.655518 
	C605.715881,449.511169 608.617188,448.677673 610.628845,450.104523 
	C612.064880,451.123138 613.477966,452.044342 613.263916,453.963806 
	C613.030090,456.060577 611.126221,456.349365 609.544128,456.702148 
	C604.758057,457.769379 600.269775,455.208923 598.576050,450.524750 
	C597.929138,448.735626 596.542969,448.020660 594.247681,447.548096 
	C592.367065,451.771179 589.483093,455.489838 585.480957,459.207550 
	C591.641418,461.511169 597.628967,461.351501 603.438416,461.597717 
	C607.012329,461.749176 610.677612,461.772186 613.976257,458.691650 
	C616.651428,456.193390 620.687988,458.873840 624.126709,458.800903 
	C627.601685,458.727203 630.496887,458.815826 631.785522,463.198425 
	C632.574097,465.879883 635.854126,465.137207 637.995789,464.629303 
	C640.471558,464.042175 639.834778,461.821503 639.306885,460.063599 
	C638.706177,458.063293 638.176880,456.069305 640.099304,454.571045 
	C642.130981,452.987671 643.707764,454.445160 645.468506,455.505920 
	C648.967773,457.614105 652.529541,460.435455 656.488892,456.047058 
	C657.280457,455.169769 658.695374,455.259888 659.712524,456.119293 
	C660.983582,457.193237 661.405334,458.701172 660.900635,460.202667 
	C659.332336,464.867645 661.177795,466.650879 665.816895,466.852478 
	C672.613342,467.147766 674.822571,465.806610 675.156677,460.837616 
	C675.289612,458.861389 674.310364,457.741364 672.916199,456.702698 
	C670.030701,454.552948 668.100830,451.539673 666.597046,448.441711 
	C665.266296,445.700043 664.831970,442.041779 668.543579,440.810822 
	C672.127991,439.622070 672.748230,442.851227 673.352966,445.577271 
	C673.729919,447.276123 673.737549,449.282776 675.707275,450.211700 
	C680.639404,445.927277 680.963257,443.181732 676.709534,438.713013 
	C673.863953,435.723663 671.292542,432.758118 671.993469,428.252411 
	C672.570923,424.540375 675.195374,422.962128 678.322998,425.001556 
	C681.354309,426.978180 682.517822,425.279083 683.843018,423.206818 
	C685.351074,420.848724 687.272522,418.247650 690.160706,420.086609 
	C692.995300,421.891479 693.799133,425.230652 692.144165,428.501648 
	C691.104553,430.556458 689.689270,432.421143 688.510376,434.264984 
	C690.549438,438.409973 692.974060,440.867950 697.843506,438.579803 
	C700.860596,437.162048 702.831055,439.286285 704.745483,441.771454 
	C705.000000,442.444458 705.000000,442.888885 704.735840,443.885376 
	C701.077332,449.652740 696.187317,449.594147 690.830322,448.538940 
	C685.393127,447.467926 684.483154,448.704407 686.193420,454.234131 
	C692.999695,450.788483 696.390015,451.106720 700.803162,455.932800 
	C702.038330,457.283478 702.896179,458.926788 705.000000,459.000000 
	C705.000000,462.692902 705.000000,466.385834 705.000000,470.539368 
M170.783829,118.756989 
	C171.023056,115.572060 172.842224,114.029625 175.926605,113.728134 
	C179.911133,113.338646 183.140396,114.543343 185.340286,118.031433 
	C186.421005,119.744980 186.858749,122.024475 189.673767,122.951859 
	C189.174438,118.319839 187.291412,114.572830 185.553162,110.951454 
	C181.209091,101.901199 175.729706,93.739540 165.787201,89.778992 
	C160.907288,87.835114 160.101059,88.155441 158.332413,93.624840 
	C158.837830,94.427803 159.669983,94.499367 160.497528,94.639671 
	C167.613495,95.846146 172.203827,100.370979 175.682587,106.303047 
	C176.395630,107.518951 176.585739,108.947601 175.523392,110.024132 
	C174.062759,111.504265 172.655258,110.284088 171.567245,109.410332 
	C169.891373,108.064491 168.477417,106.397827 166.898041,104.925552 
	C159.822235,98.329651 150.960052,98.003487 145.501892,105.196640 
	C141.563751,110.386620 136.331924,114.104904 132.333313,119.186050 
	C124.960793,128.554535 116.895615,137.256607 111.745537,148.327744 
	C109.363464,153.448456 108.238312,159.266205 104.936447,163.734955 
	C99.670792,170.861511 98.947914,179.437180 96.634895,187.361694 
	C93.921913,196.656509 94.162392,206.652313 93.475555,216.386551 
	C93.045471,222.482010 94.116844,224.136383 100.431396,224.536835 
	C103.106148,224.706467 105.629883,225.603699 108.148987,225.965103 
	C111.911079,226.504822 115.723526,229.595703 119.471146,227.339294 
	C123.697845,224.794434 126.679092,220.741440 127.712112,215.864044 
	C130.523026,202.592346 137.081131,190.787384 141.963776,178.329346 
	C142.482437,177.005981 143.293259,175.956207 144.909088,176.178101 
	C146.224533,176.358734 146.958984,177.315094 147.178452,178.527008 
	C147.412796,179.821304 147.952393,181.431992 147.436218,182.425079 
	C145.390564,186.360840 145.636597,190.817459 144.195679,194.875900 
	C141.678696,201.965225 137.812866,208.579056 136.745956,216.190720 
	C136.519150,217.808701 135.967163,219.474091 135.176910,220.902985 
	C132.638153,225.493469 131.208740,230.393433 130.450455,235.548492 
	C130.261536,236.832901 129.800552,238.116745 129.251450,239.302109 
	C126.280693,245.715195 125.258514,252.767456 127.581078,259.093628 
	C131.199417,268.949310 133.596008,279.064514 136.349808,289.122498 
	C139.408051,300.292328 142.738098,311.387756 145.793991,322.558197 
	C146.812592,326.281586 148.565292,328.029572 152.551285,326.634827 
	C155.993195,325.430481 159.606888,324.660309 162.948654,323.237823 
	C171.170059,319.738190 172.924866,316.159821 171.245041,307.459625 
	C171.025635,306.323181 170.880753,305.140167 170.930786,303.988708 
	C171.653885,287.341492 167.723145,270.937561 168.415298,254.263504 
	C168.610367,249.564011 168.890656,245.024628 170.228775,240.521332 
	C171.789261,235.269775 174.467911,230.211243 174.607361,224.705460 
	C174.816742,216.439056 177.084549,208.682434 178.917389,200.750320 
	C179.955383,196.258118 181.675415,191.543137 180.419800,186.805756 
	C176.140411,186.081161 164.507156,174.444702 164.183548,170.767899 
	C163.938858,167.987701 165.570511,166.463165 168.147446,167.200119 
	C171.720749,168.222015 175.602386,168.883820 177.741730,172.741409 
	C178.529388,174.161713 179.308365,176.221237 182.205688,175.951309 
	C183.644806,171.294922 184.164337,166.374115 183.497681,161.449738 
	C182.862091,156.755081 184.386047,154.428894 189.881729,154.873688 
	C188.905106,151.842514 191.465500,148.261475 188.179779,146.402252 
	C184.207626,144.154602 180.367615,141.188980 175.408447,141.179230 
	C174.218445,141.176895 172.749847,140.993683 172.383545,139.823074 
	C170.929977,135.177856 166.842712,130.954132 170.051239,125.484314 
	C171.078598,123.732933 171.057587,121.646103 170.783829,118.756989 
M525.342285,295.482330 
	C528.533813,294.634521 532.102783,293.793610 533.033264,298.161530 
	C533.946655,302.448608 530.407349,302.783295 527.297485,303.125305 
	C524.551453,303.427277 522.368958,304.934875 520.160767,306.480530 
	C511.331116,312.661163 508.028687,322.884949 502.090851,331.168823 
	C499.221954,335.171234 498.342957,339.580139 503.210419,343.307129 
	C504.424438,344.236664 504.737030,346.278168 503.359406,347.327820 
	C500.014679,349.876129 502.264099,351.717590 503.656158,353.997284 
	C505.136566,356.421661 507.656982,356.769928 509.829041,357.892151 
	C514.118835,360.108490 513.857727,362.406982 510.478607,365.716492 
	C507.417694,368.714294 503.301208,366.659821 500.454620,368.940460 
	C498.200043,370.746796 496.054749,370.339752 494.012695,368.991302 
	C490.802002,366.871216 488.036316,364.197388 485.699890,361.133606 
	C483.954742,358.845032 483.675934,356.335510 486.233398,354.580536 
	C488.883179,352.762177 490.902100,354.152588 492.363831,356.661774 
	C493.662811,358.891693 494.611145,361.496368 497.874939,362.238800 
	C497.150085,357.098053 494.110535,353.264954 491.879852,349.081238 
	C491.079987,347.581146 489.715698,347.853760 488.361267,348.213287 
	C483.498993,349.503998 479.013000,348.416168 474.278076,346.908936 
	C471.336700,345.972626 468.608643,344.158508 464.457977,345.373566 
	C457.407898,347.437469 456.337341,352.872498 454.292450,358.109955 
	C450.854340,366.915649 453.450775,371.214630 462.719391,372.843414 
	C470.396393,374.192505 478.147522,373.923370 485.778778,374.423492 
	C493.872528,374.953949 502.351105,374.964447 510.394928,377.074707 
	C514.227234,378.080078 516.816895,376.343140 519.168335,373.781891 
	C520.624207,372.196167 522.132141,370.622345 523.345764,368.856934 
	C526.973206,363.580292 531.247559,358.891235 532.121460,351.843414 
	C532.791992,346.435852 535.400879,341.127991 539.917969,336.956970 
	C536.841614,333.274658 537.624084,330.010651 541.367249,327.248047 
	C542.968262,326.066437 542.556824,324.324463 542.765625,322.693817 
	C544.083008,312.406433 540.319458,302.976257 537.223511,293.630249 
	C535.670837,288.943115 532.805359,284.178345 528.510681,280.540894 
	C527.285583,282.552521 526.444763,284.166840 525.389587,285.626129 
	C520.160217,292.858246 508.702118,295.002991 503.769989,288.147491 
	C498.154510,280.342163 493.346558,281.520355 487.041138,285.778351 
	C486.385742,286.220947 485.414917,286.164459 484.665192,286.504395 
	C480.015015,288.613220 474.952301,289.740692 471.064209,293.555969 
	C465.849182,298.673309 460.985779,297.240631 458.782043,290.232971 
	C457.933563,287.534882 457.495941,284.700043 456.546997,282.043274 
	C455.593781,279.374420 453.498322,278.533356 451.756500,281.074799 
	C449.128937,284.908600 445.456940,287.918304 443.407013,292.192505 
	C438.683960,302.040436 433.996063,311.910004 429.007019,321.623444 
	C426.702911,326.109436 425.148926,330.845398 423.630432,335.567780 
	C422.211700,339.979950 421.520782,344.644623 422.272125,349.376160 
	C423.748657,358.674194 431.567383,362.135193 438.246948,366.522461 
	C439.734650,367.499603 441.498932,366.537018 441.353119,364.206940 
	C440.223206,362.516785 436.984558,363.100311 437.154236,360.405548 
	C437.334625,357.540771 440.017029,358.213928 441.777100,357.633850 
	C443.236877,357.152740 443.706116,355.876587 444.150177,354.621338 
	C445.099030,351.939209 446.181885,349.384338 448.191315,347.239746 
	C450.319397,344.968597 449.376038,342.934265 446.697784,342.485596 
	C441.971008,341.693756 438.292389,336.645172 432.877563,339.965912 
	C431.945160,336.709717 433.372223,335.452728 435.153992,334.372192 
	C437.023468,333.238403 437.903351,331.729370 437.705627,329.403046 
	C437.088989,322.149475 439.245209,315.270752 440.933807,308.356934 
	C441.650208,305.423615 443.948822,304.335419 446.730774,305.246185 
	C449.793213,306.248779 448.659576,308.546143 447.936462,310.622711 
	C445.892731,316.491669 444.814362,322.520020 445.153015,328.752014 
	C445.368744,332.721863 453.843842,340.502747 457.604828,339.422333 
	C465.859680,337.050903 473.618103,337.740051 481.416199,341.037323 
	C483.828247,342.057159 492.056335,338.138306 492.140686,335.768097 
	C492.353973,329.775360 496.728363,325.932648 498.919891,321.000092 
	C504.132294,309.268127 513.263489,301.322754 525.342285,295.482330 
M477.457550,429.802399 
	C482.794067,430.019257 488.016327,428.942749 493.289520,428.491089 
	C502.853516,427.671875 512.548340,428.417664 521.961792,425.831848 
	C528.843506,423.941467 536.059143,423.334015 542.680908,420.432678 
	C544.681519,419.556091 546.843628,418.868317 546.695190,416.039093 
	C546.398865,410.390961 546.977478,404.524384 545.626343,399.141724 
	C543.170654,389.358246 543.518799,379.447601 542.784973,369.587860 
	C542.206543,361.817261 543.928650,354.005188 542.992981,346.140930 
	C541.524414,346.414551 541.513062,347.303497 541.247437,348.069458 
	C536.997620,360.321167 532.956665,372.642059 522.264771,381.283447 
	C518.576538,384.264313 514.873474,387.891968 510.066742,386.037628 
	C507.004150,384.856171 504.161621,384.150055 501.018402,384.131012 
	C492.053894,384.076782 483.055450,384.527679 474.133820,383.890778 
	C464.783386,383.223267 455.190125,382.538422 447.879669,375.220825 
	C446.402496,373.742218 444.485870,373.520416 442.309753,374.143616 
	C437.993896,375.379608 436.835846,378.911682 436.332611,382.508179 
	C434.745605,393.850159 431.462006,404.756409 428.116486,415.634552 
	C426.880768,419.652618 427.726471,422.018036 431.577637,423.521179 
	C435.481750,425.044952 439.044586,425.765106 441.150269,420.855377 
	C442.523834,417.652618 444.008972,414.497711 445.443939,411.321289 
	C446.389648,409.227844 447.622192,407.302765 450.289337,408.099976 
	C452.630768,408.799774 452.802521,410.788147 452.596039,412.989044 
	C452.348724,415.624908 452.447083,418.292542 452.379303,420.945984 
	C452.281494,424.772583 454.018005,426.785767 457.727417,428.257965 
	C463.938751,430.723053 470.195190,429.758026 477.457550,429.802399 
M111.583183,250.076950 
	C105.984291,254.750778 101.741264,259.638947 101.730789,267.970276 
	C101.723938,273.425171 97.714272,278.395599 92.961418,281.913361 
	C91.870041,282.721161 90.629799,283.446716 89.322113,282.422058 
	C88.112617,281.474304 88.221794,280.130127 88.525528,278.760315 
	C88.860641,277.248901 89.564835,275.987854 90.630424,274.867371 
	C92.982124,272.394531 94.343819,269.325775 95.321632,266.145660 
	C97.216461,259.983215 90.632401,251.233017 84.290985,251.889145 
	C80.064194,252.326477 75.649162,254.542542 74.346420,258.538635 
	C72.720871,263.524933 68.594681,268.636597 72.757874,274.470367 
	C75.328384,278.072357 78.685287,279.633911 82.938095,279.724609 
	C84.998146,279.768524 86.633362,280.527039 86.714653,282.811157 
	C86.794731,285.061401 85.295792,286.046661 83.211243,286.210571 
	C77.405151,286.667023 76.086815,291.128265 75.367599,295.591858 
	C74.520653,300.848175 73.982803,306.133972 72.032158,311.147003 
	C71.001884,313.794739 70.886650,316.536377 71.150627,319.556549 
	C82.190811,318.232727 92.599792,320.359772 102.873253,323.021606 
	C112.992966,325.643616 123.145561,324.438965 133.311020,324.107697 
	C137.147888,323.982635 137.902008,322.323822 136.787689,318.543274 
	C133.344650,306.862274 127.910179,295.753754 126.558083,283.460663 
	C126.452522,282.500885 125.848495,281.603271 125.530907,280.658356 
	C121.953644,270.015076 117.983757,259.463287 118.796524,247.896210 
	C118.903564,246.372864 120.141205,244.731277 118.477829,242.878113 
	C115.731018,244.557846 114.422554,247.600937 111.583183,250.076950 
M146.244583,538.003662 
	C147.247223,542.097473 150.061264,542.476257 153.133499,540.825012 
	C159.160431,537.585632 166.021591,536.983521 172.347549,534.261414 
	C179.646851,531.120483 187.553299,528.665588 195.201019,525.924194 
	C200.837997,523.903503 205.434387,520.441956 209.193466,515.862610 
	C210.501892,514.268677 212.650406,512.578735 211.040970,510.230530 
	C209.684067,508.250885 207.382416,509.072266 205.476166,509.492767 
	C197.771866,511.192261 190.275635,509.724396 182.784286,508.133423 
	C180.116440,507.566833 178.672073,505.780670 178.936096,503.113220 
	C179.357788,498.853088 179.210709,494.594757 180.148575,490.306671 
	C181.670914,483.346252 182.250717,476.182587 183.320618,469.118652 
	C183.636627,467.032043 181.267670,464.893616 183.298126,462.961517 
	C186.403183,460.006958 186.032516,455.924896 186.767090,452.307373 
	C187.889359,446.780701 186.383133,445.781891 180.972839,447.181000 
	C172.795822,449.295532 164.684494,451.976532 156.078506,451.611938 
	C147.614456,451.253418 145.560974,453.470856 145.517441,462.187866 
	C145.488037,468.075836 145.116806,474.021820 144.196762,479.830719 
	C142.993362,487.428741 142.239761,495.034973 143.412201,502.599823 
	C143.959412,506.130524 145.996399,509.575653 145.451416,513.216003 
	C144.834885,517.334412 143.749771,521.206299 147.574448,524.487732 
	C148.130753,524.964966 147.728912,526.702148 147.579742,527.831116 
	C147.165970,530.962708 146.651535,534.081055 146.244583,538.003662 
M414.867493,361.242126 
	C416.008545,359.924683 415.939209,358.408264 415.218353,357.031372 
	C413.590942,353.923065 413.582123,350.588226 413.750793,347.269653 
	C413.943970,343.469147 412.511719,341.184387 408.591034,340.782471 
	C404.077606,340.319855 400.644043,338.022339 398.783051,334.017914 
	C397.093475,330.382416 395.183502,327.676178 390.790405,327.166992 
	C388.699127,326.924561 387.885651,324.729614 387.123749,322.788452 
	C385.540833,318.755768 384.098297,314.706726 378.152313,315.725586 
	C375.641968,316.155731 373.017639,314.020599 372.048370,311.941345 
	C369.721161,306.949188 365.619720,303.137054 363.675934,297.861267 
	C361.792236,292.748444 359.496338,287.805511 358.768188,282.288239 
	C358.309021,287.272766 355.602905,292.407349 360.343567,296.774628 
	C361.382690,297.731903 360.769348,299.317719 359.978363,300.485046 
	C351.168884,313.485840 345.861237,328.070190 340.859802,342.789032 
	C338.070282,350.998413 339.600739,354.923004 347.317566,356.568970 
	C362.690796,359.847992 377.727753,365.285889 393.733826,364.847931 
	C400.680542,364.657837 408.144226,367.267670 414.867493,361.242126 
M162.780991,371.316162 
	C153.787537,373.151489 151.850372,383.104889 144.231827,387.254120 
	C139.013718,390.096039 136.234756,397.498138 132.514008,402.962860 
	C131.240356,404.833435 131.362747,406.943329 133.665527,408.036804 
	C135.868561,409.082977 136.727905,410.556854 137.089432,412.987274 
	C137.842499,418.049774 146.123642,427.385620 150.567444,427.182495 
	C156.350464,426.918182 161.823441,424.629883 166.906235,420.309723 
	C163.181274,418.572876 160.337540,419.351837 157.489365,420.148682 
	C154.938995,420.862244 152.053436,421.293213 151.269608,418.103088 
	C150.495941,414.954376 153.770935,414.696899 155.777710,413.858643 
	C158.454666,412.740509 161.339401,413.006989 164.166473,413.080841 
	C168.148117,413.184875 172.132217,413.475983 176.108917,413.390747 
	C178.739578,413.334412 182.406525,412.141418 183.085449,415.171692 
	C183.709137,417.955414 183.409439,421.841400 180.947632,424.221893 
	C175.031921,429.942169 168.476044,434.416656 159.565903,433.635620 
	C157.836639,433.484070 155.902802,434.107697 154.262650,434.827759 
	C151.016815,436.252686 150.336075,439.516541 150.669159,442.398743 
	C150.990585,445.179993 153.924057,444.330658 156.010315,444.625610 
	C162.633133,445.561981 168.914307,443.550507 175.205353,442.300934 
	C179.929962,441.362488 185.609024,440.212860 183.949722,432.750305 
	C183.707993,431.663177 184.654495,430.257050 185.189972,429.060669 
	C189.323868,419.824890 191.374237,410.525360 186.513992,400.844269 
	C185.945786,399.712433 185.775574,398.275635 185.775620,396.980225 
	C185.775986,386.211365 180.619812,376.362122 180.228073,365.666748 
	C180.205063,365.038055 179.830032,364.397156 179.528900,363.807861 
	C177.611511,360.055634 175.147385,359.605469 172.828888,363.070923 
	C170.396317,366.706909 167.234070,369.134125 162.780991,371.316162 
M214.177841,19.572172 
	C206.717804,19.333683 199.246841,19.048269 191.828979,20.108759 
	C180.125397,21.781950 166.970886,29.182138 168.001877,43.819542 
	C168.612976,52.495415 165.904816,60.552357 158.840149,66.503922 
	C158.015839,67.198357 156.699738,67.679008 157.128616,69.551697 
	C158.177780,69.921120 159.399261,70.346046 160.617188,70.780960 
	C165.300156,72.453232 170.245651,71.289589 174.945969,72.013000 
	C183.370804,73.309631 191.895706,72.582939 200.267151,73.785439 
	C208.294571,74.938507 211.988647,69.601883 214.067505,63.852734 
	C216.162415,58.059242 219.457947,56.640125 224.900558,56.716858 
	C228.750198,56.771130 232.649551,58.212849 236.821762,56.877651 
	C231.457245,52.839397 230.912216,51.873024 230.877319,45.057762 
	C230.864227,42.497185 229.592773,40.126217 229.587250,37.751793 
	C229.563614,27.609686 224.989685,21.536186 214.177841,19.572172 
M508.966736,280.490387 
	C510.529327,282.972351 512.315796,285.394043 515.677490,284.528717 
	C518.820862,283.719543 521.062012,281.180145 521.424744,278.196411 
	C522.202087,271.803955 523.053223,265.270233 518.860840,259.405518 
	C516.070312,255.501846 516.268250,251.763550 520.091003,248.327896 
	C524.290039,244.554016 525.806213,239.689499 525.899841,234.015732 
	C526.031006,226.067413 522.305847,219.670135 518.341919,213.393173 
	C517.172119,211.540726 515.202820,209.503510 511.845001,209.750732 
	C510.514343,214.618851 511.566162,219.385895 512.509033,223.926590 
	C514.242004,232.272308 507.830170,244.555130 499.857361,246.833969 
	C498.670837,247.173111 496.990204,247.156342 495.996979,246.551163 
	C492.494995,244.417374 489.400726,245.184067 486.155243,247.068069 
	C483.325226,248.710907 480.995667,248.220367 479.929321,244.802109 
	C479.507050,243.448502 479.093506,242.146835 477.350830,242.366638 
	C475.537445,242.595383 474.929291,243.872696 474.944641,245.860474 
	C477.404297,247.367981 480.779816,248.499603 479.843384,252.670959 
	C479.773376,252.982956 480.635376,253.600906 481.155579,253.933792 
	C486.961060,257.649048 486.981293,257.788574 481.384827,261.380798 
	C480.342773,262.049683 479.444092,262.731415 479.640656,264.099915 
	C479.776367,265.045227 480.551270,265.375336 481.376343,265.652130 
	C488.483032,268.036346 496.702728,263.160156 497.661469,255.921158 
	C498.001678,253.352417 497.445129,249.790390 501.383972,250.235153 
	C504.938751,250.636536 504.266968,254.149292 504.424652,256.717773 
	C504.505768,258.039093 504.378326,259.382233 504.248016,260.705933 
	C503.571899,267.573944 505.421753,273.859863 508.966736,280.490387 
M111.470276,364.026123 
	C113.454689,368.136719 115.439110,372.247314 117.465622,376.445099 
	C120.358536,375.101715 121.910698,373.006256 123.616524,370.965240 
	C131.315521,361.753235 138.032333,351.590790 148.478745,344.992188 
	C150.170212,343.923767 150.685074,342.074738 150.551849,340.184326 
	C150.412155,338.202423 149.379517,336.674561 147.318695,336.266632 
	C145.460953,335.898895 143.801285,335.260956 142.543701,333.813507 
	C140.548523,331.517120 138.140991,331.412201 135.289185,331.882141 
	C132.169098,332.396301 129.387070,334.364624 126.119766,334.000214 
	C117.643951,333.054871 108.954338,335.849701 100.606308,332.552856 
	C100.437027,332.485962 100.083366,332.885956 99.760071,333.105988 
	C98.694794,339.227509 104.416870,342.804047 105.476776,347.992798 
	C106.595810,353.470978 109.628181,358.091217 111.470276,364.026123 
M374.491760,71.813271 
	C372.935730,62.877151 366.198456,57.037659 361.037689,50.417755 
	C359.509033,48.456890 354.952118,45.304012 351.816132,48.557308 
	C347.288177,53.254593 342.473267,58.161423 341.247101,64.981232 
	C340.201782,70.795128 339.778076,76.720963 339.084534,82.597885 
	C337.705444,94.283775 343.219360,103.335159 354.263672,107.445824 
	C356.536255,108.291656 358.726196,107.991913 361.047577,107.169914 
	C369.237793,104.269775 370.031891,96.399796 373.941528,89.825340 
	C369.172943,89.506447 366.958954,87.221664 366.003601,83.748283 
	C365.470276,81.809288 366.887756,80.630692 368.452148,79.880096 
	C372.018341,78.169029 374.616211,79.890869 376.599030,83.024994 
	C380.300507,78.239059 376.925049,75.511749 374.491760,71.813271 
M461.888824,228.218338 
	C462.709229,230.635803 464.871674,230.702759 466.816956,230.804459 
	C471.724579,231.061035 476.353485,232.378052 480.641418,234.622391 
	C485.497955,237.164337 491.142731,236.194153 496.038300,238.481445 
	C497.458191,239.144867 498.945129,238.424179 500.127777,237.295471 
	C503.229950,234.334732 505.166687,231.146667 505.051300,226.444901 
	C504.893280,220.006805 501.648895,214.463684 500.783142,208.290924 
	C500.616211,207.100922 499.717163,206.026947 498.587250,205.727875 
	C490.137085,203.491257 481.792694,202.060043 473.565826,206.948685 
	C465.646942,211.654312 464.056061,219.688812 461.888824,228.218338 
M512.805176,455.523560 
	C513.505127,455.090179 514.625732,454.805084 514.839050,454.200134 
	C516.707031,448.902313 518.534546,443.582642 520.098206,438.189484 
	C520.612244,436.416351 519.309326,435.269165 517.441772,435.610229 
	C508.232452,437.292114 498.861450,436.828491 489.614594,437.770020 
	C476.667267,439.088348 463.790649,441.098419 451.218475,435.720398 
	C449.509979,434.989532 447.616028,434.848755 446.455536,436.994385 
	C444.876404,439.914001 445.542877,446.896149 447.649475,448.910675 
	C449.528351,450.707428 461.684479,453.000153 463.212463,451.811737 
	C463.594452,451.514679 463.871155,451.062378 464.143127,450.646698 
	C467.141113,446.064514 472.372925,448.855591 476.287994,447.080811 
	C477.330658,446.608124 478.678650,448.577576 479.138702,450.100800 
	C479.456207,451.152069 479.251038,452.534271 481.323608,452.784149 
	C482.502594,450.265411 481.149597,445.027649 485.839417,445.612427 
	C490.795654,446.230408 488.658752,451.020752 489.037292,454.493652 
	C496.802521,455.220001 504.494415,454.156494 512.805176,455.523560 
M204.748459,90.201271 
	C204.758102,88.706543 204.700882,87.207771 204.791138,85.717926 
	C204.986588,82.492325 203.400726,81.267990 200.305939,81.252235 
	C192.021362,81.210083 183.722366,81.471184 175.480606,80.234665 
	C173.806778,79.983536 171.958084,80.057579 171.210953,81.945786 
	C170.360703,84.094666 172.238113,84.751678 173.615967,85.647644 
	C181.086700,90.505585 187.359512,96.431007 190.860214,104.873741 
	C191.325546,105.995972 191.220688,107.626434 193.090149,108.026207 
	C195.019165,105.471016 196.457062,101.699173 199.065018,100.524071 
	C203.641281,98.462074 204.160706,95.013947 204.748459,90.201271 
M91.875992,335.362549 
	C91.266296,329.684753 90.223190,328.646057 86.297211,329.167267 
	C90.240807,350.792084 98.105110,371.365387 103.544128,393.440125 
	C106.826111,388.074158 113.334076,386.954102 114.090691,380.810577 
	C108.755295,378.187561 108.510406,372.312927 105.771103,368.066650 
	C99.333244,358.087036 96.907555,346.633972 91.875992,335.362549 
M113.397919,469.584991 
	C112.621269,468.164459 113.187759,466.215332 111.200592,464.706848 
	C109.229919,466.351044 105.720413,467.075836 105.919754,470.369019 
	C106.431328,478.820190 103.524582,487.243439 105.863022,495.676178 
	C106.387115,497.566071 106.068611,499.451782 104.655998,500.786255 
	C102.355057,502.959900 101.904228,505.614899 102.070946,508.533966 
	C102.291779,512.400696 102.052567,516.193420 100.276939,519.734375 
	C99.030586,522.219971 100.015396,523.387024 102.520149,523.961731 
	C105.404297,524.623413 108.236656,525.284668 112.441658,523.673889 
	C105.637138,519.060974 109.773682,515.126892 112.587738,511.398682 
	C107.724701,508.131592 106.279617,504.095459 109.347679,500.215759 
	C112.171387,496.645020 110.965759,493.498016 110.520370,489.872620 
	C109.693794,483.144379 105.668640,475.792847 113.397919,469.584991 
M177.084396,275.583527 
	C179.775436,275.551666 182.391678,273.965424 183.158035,272.088470 
	C185.946564,265.258759 190.192123,258.952057 190.928024,251.314896 
	C191.254974,247.921829 190.105637,245.820312 186.842636,245.046219 
	C183.698318,244.300323 180.629364,243.355484 177.846054,241.869110 
	C176.613983,243.413696 176.679779,244.858932 176.555206,246.366714 
	C175.765228,255.927475 175.809235,265.462311 177.084396,275.583527 
M134.728714,504.092712 
	C135.874268,498.489716 136.020172,492.933044 134.210312,487.324982 
	C132.233322,492.586121 127.841728,494.467590 122.715782,496.005280 
	C123.734360,496.785797 124.200920,497.226990 124.741112,497.541870 
	C126.507011,498.571198 127.675095,499.937286 126.678406,502.024719 
	C125.578339,504.328583 123.699074,504.240540 121.591652,503.381714 
	C116.433556,501.279755 117.199226,505.137604 116.781494,507.652527 
	C121.858025,511.370758 131.038849,511.442200 126.534744,521.460266 
	C136.636658,520.581116 136.431442,520.233337 135.379227,511.230713 
	C135.132721,509.121674 134.035858,507.112396 134.728714,504.092712 
M227.165939,156.712372 
	C225.735794,159.531326 224.205338,162.304886 222.903000,165.181717 
	C221.535477,168.202591 219.779160,171.446869 222.851212,174.387650 
	C226.313187,177.701736 230.623810,177.064560 235.897934,177.381042 
	C234.622726,175.941513 234.373535,175.473236 233.983902,175.248291 
	C227.573441,171.547562 227.754196,171.081635 231.605774,164.692017 
	C234.792618,159.405182 241.151566,156.498749 242.175644,149.523239 
	C236.839920,150.516464 230.969986,150.391693 227.165939,156.712372 
M124.142967,438.660400 
	C123.015411,440.972015 122.757080,443.086670 125.293419,444.739960 
	C127.652412,446.277618 129.965912,446.349396 132.216019,444.636230 
	C134.711639,442.736206 137.169968,441.190948 140.437317,440.407959 
	C143.561401,439.659241 143.741684,436.143372 141.861557,433.880585 
	C139.065536,430.515533 135.631958,427.680206 132.110718,424.272003 
	C128.793015,428.911255 128.136734,434.355988 124.142967,438.660400 
M182.405731,322.585571 
	C189.816422,316.336792 194.780807,308.154205 199.850220,300.112061 
	C202.599197,295.751068 205.964508,291.532562 206.449646,285.861481 
	C203.766800,285.788544 202.593994,287.639984 201.528214,289.110535 
	C196.034576,296.690582 190.889542,304.510956 183.745010,310.765808 
	C180.147171,313.915649 180.289673,318.029602 182.405731,322.585571 
M220.441895,186.829361 
	C218.388016,184.407990 217.200729,180.262756 213.311295,180.852402 
	C205.975403,181.964569 201.796692,191.241135 204.843643,198.769165 
	C211.983414,197.674698 217.495819,194.328598 220.441895,186.829361 
M215.179230,76.539589 
	C214.899551,78.637726 213.537796,80.390602 213.882568,82.774796 
	C214.492004,86.989639 215.236542,91.317162 211.940674,95.091919 
	C210.948471,96.228294 211.988892,97.198448 213.484131,97.242188 
	C214.946930,95.042595 216.676147,92.994766 217.758972,90.648598 
	C218.716904,88.573006 220.868469,85.985138 218.326462,83.894501 
	C215.207794,81.329613 216.228577,79.493500 218.650009,77.547066 
	C220.707886,75.892838 221.925919,73.316345 224.561707,72.296478 
	C226.473221,71.556862 226.932816,70.154747 226.198990,68.274239 
	C225.561996,66.641815 225.628647,64.508263 223.151489,64.268196 
	C220.984680,64.058205 219.635620,65.274940 218.851288,67.022110 
	C217.563400,69.891052 216.494232,72.858177 215.179230,76.539589 
M90.710007,236.898666 
	C97.656921,245.039719 105.343781,244.383286 110.032494,234.817398 
	C104.543655,232.731750 98.945381,231.349792 93.141823,231.344543 
	C90.072136,231.341766 88.505890,233.110321 90.710007,236.898666 
M196.432388,224.966248 
	C199.150665,218.081055 198.805267,211.154312 196.337280,204.063736 
	C192.679886,211.312820 190.821930,219.032913 189.425430,227.828583 
	C192.197556,226.740677 194.006424,226.030792 196.432388,224.966248 
M216.513840,210.100815 
	C216.863174,207.746490 216.054779,205.367416 213.588043,206.916046 
	C210.954926,208.569107 208.842834,207.477905 206.360901,206.954880 
	C206.019592,210.624069 206.817856,213.486130 210.095657,214.532288 
	C213.187881,215.519226 214.897812,213.197250 216.513840,210.100815 
M190.971405,177.659256 
	C190.646408,176.577835 191.651596,175.245087 190.175385,174.161301 
	C188.947678,184.059250 189.144104,193.963440 186.772614,203.571274 
	C191.533844,195.741959 191.513351,187.123062 190.971405,177.659256 
M464.071838,258.069336 
	C465.521759,259.816193 466.946442,261.607941 469.604156,261.421021 
	C469.916595,254.987442 469.916595,254.987442 463.107544,249.863800 
	C463.317108,252.526138 463.509094,254.964920 464.071838,258.069336 
M116.469376,433.906372 
	C118.438301,431.287048 122.295975,429.337036 119.770119,424.700317 
	C117.497513,426.814545 115.497147,428.683868 113.486290,430.541840 
	C112.712524,431.256805 112.153831,432.113190 112.600075,433.142395 
	C113.242920,434.624969 114.463722,434.839111 116.469376,433.906372 
M131.060440,452.328156 
	C127.979454,454.727264 129.872879,456.639099 131.893082,458.118317 
	C133.231232,459.098175 135.325684,459.289185 136.201019,457.476685 
	C137.572617,454.636658 135.517334,453.316467 133.207321,452.405823 
	C132.765549,452.231689 132.242996,452.262451 131.060440,452.328156 
M611.398804,421.553284 
	C609.987732,421.782410 608.512817,420.630920 607.152405,421.710083 
	C605.864746,427.162781 606.429138,427.848846 612.304260,427.223602 
	C610.473206,425.328308 613.254700,423.514374 611.398804,421.553284 
M529.616699,445.890839 
	C529.046814,442.707733 529.975830,440.470917 535.208984,440.280365 
	C532.460571,439.211975 531.376282,438.401184 530.338196,438.456543 
	C526.514038,438.660339 526.999146,442.090454 526.505371,444.446960 
	C526.123962,446.267670 526.922668,447.935364 529.616699,445.890839 
M347.041626,41.338764 
	C347.109985,41.995766 346.681976,43.539333 348.007812,42.610119 
	C349.837524,41.327740 352.217773,40.683418 353.451721,38.582405 
	C352.819214,36.743595 351.471313,35.404037 349.792267,35.874825 
	C347.659912,36.472729 347.368622,38.746243 347.041626,41.338764 
M124.111053,481.669281 
	C122.209709,479.623871 120.749016,480.705994 120.057877,482.618805 
	C119.577515,483.948212 120.620003,485.308380 122.132187,485.457336 
	C124.507011,485.691254 124.898224,484.210724 124.111053,481.669281 
M334.791534,298.256714 
	C334.643066,296.626678 335.948273,295.127930 335.125610,292.978577 
	C332.782898,295.536560 331.714630,297.929901 332.945465,301.215759 
	C334.503204,300.600739 334.579834,299.748474 334.791534,298.256714 
M338.666595,275.987335 
	C338.160248,274.188873 337.035095,274.059845 335.697357,275.015167 
	C334.860901,275.612549 334.401825,276.511688 334.792542,277.603607 
	C335.150909,278.605103 335.885742,279.400116 336.908142,279.442047 
	C338.859039,279.522125 338.729004,277.989532 338.666595,275.987335 
M468.600494,241.795303 
	C468.527740,240.657745 467.961548,239.646622 466.811737,240.205124 
	C464.818420,241.173309 463.813599,242.909561 463.937836,245.373505 
	C466.233734,245.097427 467.622528,244.122253 468.600494,241.795303 
z"/>
<path fill="#000000" opacity="1.000000" stroke="none" 
	d="
M66.375000,561.000000 
	C56.770004,558.300171 50.635567,551.658020 44.935631,544.461670 
	C42.484493,541.367065 39.388954,538.841064 38.103249,534.789062 
	C35.770027,527.435730 37.958080,520.632568 41.550156,514.781006 
	C46.018749,507.501373 48.336575,499.369843 52.250378,491.910583 
	C53.567852,489.399658 55.152641,486.790283 56.229351,483.701111 
	C48.349976,481.905090 42.108517,485.677216 35.660168,487.870758 
	C25.787790,491.228973 15.841673,494.518433 7.383963,501.052979 
	C5.918925,502.184845 3.626619,502.246002 1.358217,502.900848 
	C1.000000,499.969391 1.000000,496.938812 1.000000,493.454102 
	C4.989404,491.988098 8.063631,489.402161 11.890604,486.575470 
	C9.105356,486.116119 6.849433,485.483521 5.155482,483.607880 
	C3.468223,481.739594 2.306720,479.786102 3.286077,477.319031 
	C4.565982,474.094910 8.262259,473.954620 13.005200,476.856384 
	C14.266020,475.250641 13.383327,473.319916 13.794884,471.601013 
	C14.196118,469.925201 14.700795,468.324554 16.563730,467.789978 
	C18.218596,467.315155 19.547012,468.004608 20.393261,469.419037 
	C22.158949,472.370087 23.869442,472.045349 25.630138,469.456177 
	C26.964308,467.494232 28.443386,465.096802 31.130220,466.341583 
	C34.582455,467.941040 34.344986,471.500793 34.153610,474.663727 
	C33.991333,477.345642 32.795586,479.950775 29.828184,479.840210 
	C26.355045,479.710846 25.175671,481.532623 23.538710,485.465240 
	C27.245821,483.801086 29.898727,482.687012 32.484589,481.434540 
	C39.496952,478.038086 46.812553,475.793915 54.645134,476.933289 
	C58.989758,477.565308 61.231205,475.320892 62.709209,472.101685 
	C64.128212,469.011017 66.174690,466.343903 69.180984,465.553192 
	C77.953201,463.245880 82.059433,457.521423 83.077675,448.905487 
	C83.464561,445.631744 84.492882,442.471710 85.302376,439.280182 
	C86.287689,435.395538 86.807426,431.129761 83.185127,427.627838 
	C80.887314,425.406433 81.149117,422.370361 82.886162,419.797180 
	C84.932182,416.766357 87.900002,414.696320 91.595947,414.713104 
	C93.888802,414.723511 94.012497,416.918427 93.050522,418.479553 
	C90.333244,422.889343 90.769402,427.275360 92.405113,431.879944 
	C92.941063,433.388641 93.279266,435.306824 92.832062,436.770050 
	C90.126587,445.622375 89.962151,455.069641 85.597298,463.616364 
	C83.494301,467.734161 80.372353,469.093018 76.859207,470.118469 
	C71.856499,471.578674 69.437317,475.149475 66.986641,479.284882 
	C62.421463,486.988464 59.528717,495.441345 55.956371,503.551025 
	C52.822613,510.665070 50.080223,517.941589 46.437370,524.853394 
	C44.545258,528.443420 45.609570,531.709778 49.139183,533.882935 
	C57.671535,539.136108 64.694878,546.282104 72.510468,552.433350 
	C76.484612,555.561157 75.739616,557.382202 69.213791,560.726685 
	C68.250000,561.000000 67.500000,561.000000 66.375000,561.000000 
z"/>
<path fill="#000000" opacity="1.000000" stroke="none" 
	d="
M705.000000,423.535339 
	C702.138367,424.511017 699.329468,427.562164 696.385315,424.368256 
	C694.556702,422.384583 691.975281,420.631561 693.437988,417.207245 
	C694.823853,413.962860 696.190979,410.783447 700.422241,410.494751 
	C701.728943,410.405640 703.023071,410.131927 704.661499,409.971375 
	C705.000000,414.356903 705.000000,418.713806 705.000000,423.535339 
z"/>
<path fill="#000000" opacity="1.000000" stroke="none" 
	d="
M381.728668,156.263718 
	C384.231354,160.299484 387.260345,163.295090 390.810059,165.883972 
	C393.119598,167.568405 395.535156,169.876877 393.541321,172.983658 
	C391.460388,176.226212 388.284302,174.776108 386.033661,173.151215 
	C377.759766,167.177673 371.947144,159.273911 368.856354,149.497040 
	C368.518372,148.428009 368.600708,147.245590 367.979980,146.182953 
	C366.135254,143.024750 364.608185,139.521317 368.101715,136.744415 
	C371.793701,133.809799 376.108765,131.835403 381.089478,133.260727 
	C383.341583,133.905212 384.173920,135.746017 383.996857,137.935852 
	C383.815277,140.181732 382.133362,141.041809 380.168030,141.111191 
	C377.594574,141.202026 375.170319,141.075516 374.318512,144.388596 
	C373.499786,147.573044 375.363983,148.982620 377.637054,150.279495 
	C379.855988,151.545486 380.252197,154.053680 381.728668,156.263718 
z"/>
<path fill="#000000" opacity="1.000000" stroke="none" 
	d="
M357.393982,190.387009 
	C359.491791,189.332520 361.273682,189.070450 362.581146,190.914352 
	C363.709930,192.506302 362.960144,194.046722 362.092621,195.541229 
	C361.519135,196.529160 360.453552,197.809921 360.708527,198.608124 
	C362.626801,204.612915 358.620178,206.435272 354.368622,208.460419 
	C350.776001,210.171677 347.604065,212.578094 344.831879,215.518982 
	C342.938843,217.527237 340.516846,219.020081 337.738068,217.499313 
	C334.833038,215.909454 333.677734,213.010361 334.363007,209.866531 
	C335.337006,205.398254 335.943146,200.806168 342.571716,200.583954 
	C346.506683,200.452026 348.964325,196.179306 352.339996,194.127731 
	C354.021698,193.105682 355.510956,191.766998 357.393982,190.387009 
z"/>
<path fill="#000000" opacity="1.000000" stroke="none" 
	d="
M392.955322,110.710236 
	C391.097351,111.497879 389.708313,111.544930 388.825470,109.803726 
	C387.948608,108.074242 388.285309,106.287849 389.645752,105.235886 
	C394.346680,101.600937 397.843048,97.022194 400.901031,92.013168 
	C402.095154,90.057091 403.797211,89.830513 405.493988,91.416862 
	C407.645294,93.428185 408.806580,96.123474 406.899902,98.535492 
	C403.116119,103.322067 399.359009,108.312843 392.955322,110.710236 
z"/>
<path fill="#000000" opacity="1.000000" stroke="none" 
	d="
M622.975037,491.219391 
	C620.082825,490.678192 617.618469,489.876129 617.019043,487.064880 
	C616.427002,484.288025 617.176453,481.680969 619.957336,480.386230 
	C622.669006,479.123718 624.576538,480.670959 626.343384,482.674469 
	C628.284668,484.875671 628.466431,487.006042 626.711548,489.319763 
	C625.876282,490.421082 624.761902,491.060822 622.975037,491.219391 
z"/>
<path fill="#000000" opacity="1.000000" stroke="none" 
	d="
M70.253532,523.205078 
	C68.660889,525.024231 67.202477,526.470886 64.908394,525.599915 
	C63.303295,524.990479 62.745487,523.617126 62.828342,521.989746 
	C62.962513,519.354370 64.248825,517.168457 66.914536,517.237183 
	C70.299950,517.324585 71.272354,519.733337 70.253532,523.205078 
z"/>
<path fill="#000000" opacity="1.000000" stroke="none" 
	d="
M46.217300,468.120667 
	C48.606537,470.671509 49.093040,473.010162 46.098236,474.953308 
	C44.588745,475.932770 42.883240,475.732574 41.461170,474.594666 
	C39.963272,473.396179 39.801693,471.805023 40.563068,470.122498 
	C41.643360,467.735291 43.532349,467.222900 46.217300,468.120667 
z"/>
<path fill="#000000" opacity="1.000000" stroke="none" 
	d="
M368.357910,132.316055 
	C367.560028,134.658875 366.262756,135.752151 364.173401,134.518661 
	C361.866913,133.156982 361.467957,130.922318 362.099792,128.489700 
	C362.472412,127.055023 363.408936,126.293190 365.020752,126.520058 
	C368.372040,126.991760 368.670654,129.301865 368.357910,132.316055 
z"/>
<path fill="#000000" opacity="1.000000" stroke="none" 
	d="
M377.769135,126.596100 
	C377.996887,129.219086 377.093628,130.534744 374.710815,129.588531 
	C373.093048,128.946121 371.776215,127.296341 372.871948,125.719833 
	C374.357819,123.582008 376.206024,124.541458 377.769135,126.596100 
z"/>
<path fill="#000000" opacity="1.000000" stroke="none" 
	d="
M159.364151,256.608093 
	C161.109283,258.014160 162.831573,259.064240 164.178467,260.473206 
	C165.262466,261.607178 166.570435,263.119293 165.215317,264.863800 
	C164.068008,266.340790 162.067932,266.781189 160.692612,265.925842 
	C154.704254,262.201538 148.629990,258.523926 143.123260,254.153564 
	C140.181641,251.818939 141.909134,249.524597 147.816208,248.077942 
	C147.347260,247.510773 147.024826,246.945282 146.549942,246.575699 
	C143.992859,244.585617 143.974991,242.347382 146.210144,240.273911 
	C148.453934,238.192474 151.003082,238.628265 152.759628,240.869431 
	C155.845703,244.806976 159.311584,248.214340 163.594498,250.829422 
	C164.852966,251.597855 166.193298,252.879028 165.423538,254.517624 
	C164.101044,257.332855 161.846603,255.989136 159.832321,255.363937 
	C159.675781,255.315369 159.487778,255.251984 159.344696,255.295395 
	C158.536453,255.540665 158.948196,255.991989 159.364151,256.608093 
z"/>
<path fill="#000000" opacity="1.000000" stroke="none" 
	d="
M169.268036,182.572876 
	C171.298523,184.582092 173.040878,186.361267 174.829681,188.092438 
	C176.448471,189.659058 177.340744,191.517609 175.601974,193.308121 
	C173.783386,195.180862 171.895004,194.141022 170.480453,192.461578 
	C168.626678,190.260696 166.400009,188.519516 163.935837,187.138611 
	C161.678192,185.873398 159.772659,184.380096 161.299011,181.700241 
	C162.823669,179.023346 165.273605,179.997330 167.442444,181.087158 
	C168.022125,181.378448 168.484100,181.903946 169.268036,182.572876 
z"/>
<path fill="#000000" opacity="1.000000" stroke="none" 
	d="
M493.801392,294.231934 
	C494.910614,295.332520 495.464081,296.358521 495.366089,297.587372 
	C495.181061,299.907593 494.397430,301.886078 491.739655,302.213531 
	C489.801300,302.452362 488.007874,301.985321 487.251862,299.919250 
	C486.376434,297.526825 487.413544,295.698608 489.343262,294.330414 
	C490.634705,293.414734 492.059357,293.088135 493.801392,294.231934 
z"/>
<path fill="#000000" opacity="1.000000" stroke="none" 
	d="
M521.066162,330.923584 
	C522.079468,333.519226 521.214233,335.053833 518.974976,335.768372 
	C517.755005,336.157654 516.676697,335.571320 516.006470,334.545135 
	C515.125427,333.196228 515.028381,331.678925 516.129883,330.442383 
	C517.697754,328.682312 519.331787,329.384796 521.066162,330.923584 
z"/>
<path fill="#000000" opacity="1.000000" stroke="none" 
	d="
M478.526428,336.385803 
	C476.324432,334.851807 475.386627,333.223572 477.790497,331.594543 
	C479.199371,330.639801 480.854858,331.070038 481.510284,332.685608 
	C482.467529,335.045105 481.570679,336.504730 478.526428,336.385803 
z"/>
<path fill="#000000" opacity="1.000000" stroke="none" 
	d="
M487.909668,325.765076 
	C489.274597,328.657837 488.028961,329.877808 485.557526,329.863708 
	C484.159149,329.855713 482.925476,328.705902 483.183990,327.229126 
	C483.663208,324.491577 485.531158,324.459808 487.909668,325.765076 
z"/>
<path fill="#000000" opacity="1.000000" stroke="none" 
	d="
M483.586609,407.037231 
	C479.535492,407.186188 476.793884,403.869690 472.802704,404.275879 
	C471.384888,404.420227 470.184326,402.347168 470.142151,400.551697 
	C470.104431,398.947357 470.937469,397.641357 472.473907,397.094330 
	C474.246216,396.463379 476.137695,396.263733 477.372070,398.094421 
	C478.478241,399.734985 479.640503,400.727325 481.824493,400.364624 
	C483.521057,400.082916 485.204895,400.663605 485.914581,402.440308 
	C486.737762,404.501404 485.668213,405.903870 483.586609,407.037231 
z"/>
<path fill="#000000" opacity="1.000000" stroke="none" 
	d="
M477.607666,425.412689 
	C476.361755,427.589752 474.805023,428.420715 472.893768,427.227051 
	C471.050659,426.075989 469.109619,425.365082 467.081024,424.641632 
	C464.826752,423.837738 463.247131,421.807678 465.723114,419.770264 
	C468.668365,417.346619 472.123169,419.501465 475.232758,419.916229 
	C477.466644,420.214172 478.399109,422.603638 477.607666,425.412689 
z"/>
<path fill="#000000" opacity="1.000000" stroke="none" 
	d="
M495.128296,402.214355 
	C497.407593,399.400055 499.627350,399.620880 501.457184,402.020477 
	C503.246063,404.366302 503.189667,406.994965 501.091431,409.195740 
	C498.788391,411.611420 495.396667,410.662140 494.806549,407.408539 
	C494.523499,405.847687 494.887421,404.169495 495.128296,402.214355 
z"/>
<path fill="#000000" opacity="1.000000" stroke="none" 
	d="
M514.817017,397.357239 
	C517.515564,396.447632 519.444702,396.987976 520.189819,399.516815 
	C520.822571,401.664093 519.818909,403.371582 517.924316,404.440735 
	C516.291077,405.362457 514.668457,405.088501 513.552185,403.591797 
	C511.873566,401.341156 512.549316,399.310394 514.817017,397.357239 
z"/>
<path fill="#000000" opacity="1.000000" stroke="none" 
	d="
M462.794189,403.031372 
	C459.650665,402.878632 458.527588,401.268738 458.968475,398.700592 
	C459.304169,396.745300 460.913086,396.087433 462.717529,396.111938 
	C464.427765,396.135193 466.312531,396.446411 466.722076,398.383209 
	C467.284515,401.042786 465.411713,402.243896 462.794189,403.031372 
z"/>
<path fill="#000000" opacity="1.000000" stroke="none" 
	d="
M505.175720,406.305603 
	C506.266510,404.180084 507.333710,402.232117 509.753601,403.338837 
	C511.370087,404.078125 512.818787,405.413055 512.413086,407.578064 
	C512.041382,409.561432 510.733582,410.981354 508.758575,410.938477 
	C506.249176,410.884003 505.056671,409.174286 505.175720,406.305603 
z"/>
<path fill="#000000" opacity="1.000000" stroke="none" 
	d="
M159.827454,477.767944 
	C159.642014,473.544586 161.180496,469.850433 160.307388,465.968323 
	C159.981903,464.521057 160.811569,462.899902 162.239029,462.168182 
	C165.353455,460.571655 168.721680,459.237885 172.168884,459.195618 
	C175.311951,459.157074 177.934387,460.839264 178.278305,464.537018 
	C178.909058,471.318848 172.949158,480.038086 166.402603,482.166077 
	C162.547318,483.419220 160.205475,482.539246 159.827454,477.767944 
z"/>
<path fill="#000000" opacity="1.000000" stroke="none" 
	d="
M153.023453,511.458069 
	C156.908051,510.136749 160.562149,510.639587 164.147980,510.817200 
	C166.988602,510.957855 169.415207,512.640320 169.362747,515.728638 
	C169.305008,519.127441 166.331497,518.800781 163.859894,519.213074 
	C159.387802,519.958923 156.474228,516.908691 153.047897,515.168518 
	C151.688492,514.477966 151.779297,512.988220 153.023453,511.458069 
z"/>
<path fill="#000000" opacity="1.000000" stroke="none" 
	d="
M353.145325,327.884155 
	C353.663696,323.838715 354.721588,322.191986 359.447540,322.082062 
	C364.145142,321.972809 367.209656,325.163971 371.455109,325.413727 
	C373.272278,325.520660 373.754272,328.011261 373.856201,329.906860 
	C373.909271,330.893646 366.892059,339.314789 365.924530,339.057831 
	C362.504730,338.149628 357.465668,339.892731 356.877869,333.903534 
	C356.634277,331.421204 353.238098,330.915161 353.145325,327.884155 
z"/>
<path fill="#000000" opacity="1.000000" stroke="none" 
	d="
M205.885437,28.019878 
	C209.846039,29.404848 212.062729,31.718550 212.121750,35.792671 
	C212.179031,39.748158 209.251755,40.992630 206.471649,42.546898 
	C203.497742,44.209511 199.935730,44.779427 197.644928,47.771900 
	C196.402069,49.395454 194.485687,49.194878 193.681870,47.191742 
	C192.521957,44.301125 189.606201,40.463203 193.755829,38.518814 
	C196.997086,37.000050 198.623444,35.250961 199.701706,32.138027 
	C200.591446,29.569345 202.988510,28.559685 205.885437,28.019878 
z"/>
<path fill="#000000" opacity="1.000000" stroke="none" 
	d="
M185.387390,62.241402 
	C181.886429,62.026760 179.592682,60.706924 180.177277,57.356022 
	C180.736511,54.150421 183.449615,54.102318 186.079926,54.546276 
	C190.189819,55.239960 194.273438,53.640854 198.413071,54.485592 
	C200.212219,54.852722 202.350235,54.610596 202.421814,57.128391 
	C202.489105,59.496029 200.694824,60.629887 198.647339,61.068115 
	C194.433960,61.969913 190.154785,62.378521 185.387390,62.241402 
z"/>
<path fill="#000000" opacity="1.000000" stroke="none" 
	d="
M211.878052,51.086815 
	C209.026596,46.148754 211.989166,40.000992 217.125320,39.329960 
	C220.345505,38.909241 223.452881,43.200123 221.741302,46.218449 
	C219.747040,49.735321 217.011841,52.697479 211.878052,51.086815 
z"/>
<path fill="#000000" opacity="1.000000" stroke="none" 
	d="
M185.743469,41.047794 
	C189.733749,40.333691 191.114471,42.888134 190.843719,45.582352 
	C190.570328,48.302795 188.006851,50.243217 185.293488,50.446503 
	C182.634262,50.645741 181.605530,48.483952 182.131866,45.998016 
	C182.550568,44.020432 183.745590,42.398369 185.743469,41.047794 
z"/>
<path fill="#000000" opacity="1.000000" stroke="none" 
	d="
M344.828918,94.507233 
	C346.177094,91.557724 344.534119,90.125641 342.789520,88.721313 
	C339.555481,86.117996 339.345428,83.065102 342.047241,80.128006 
	C343.467194,78.584396 343.803040,77.103699 343.648468,75.190353 
	C343.473236,73.021744 344.827423,71.771233 346.716644,71.192734 
	C348.747559,70.570869 350.270569,71.347740 351.172333,73.314865 
	C352.487946,76.184875 355.753693,78.785461 351.836426,82.147400 
	C354.190857,83.400017 357.602875,83.598175 356.736084,86.618813 
	C355.653625,90.391319 351.505676,87.899406 349.049561,89.763222 
	C351.695923,90.808578 354.377716,91.177071 357.064667,89.754181 
	C359.097656,88.677628 361.187531,88.587341 363.362915,88.941071 
	C365.107300,89.224724 366.587616,89.923180 367.003174,91.832764 
	C367.415161,93.725868 366.440765,94.873596 364.919342,95.935699 
	C363.169373,97.157387 361.632721,98.690948 360.037445,100.126846 
	C355.023712,104.639664 348.173218,103.404808 344.970825,97.323204 
	C344.619934,96.656876 344.817932,95.701530 344.828918,94.507233 
z"/>
<path fill="#000000" opacity="1.000000" stroke="none" 
	d="
M363.205078,69.574478 
	C363.972229,69.744186 364.506165,69.876495 364.809418,70.215302 
	C366.517242,72.123268 366.201965,74.166344 364.880798,76.070808 
	C364.060608,77.253136 362.862854,76.987534 361.856201,76.199806 
	C359.541748,74.388718 360.507629,72.472107 361.787415,70.605492 
	C362.053558,70.217255 362.501343,69.953529 363.205078,69.574478 
z"/>
<path fill="#000000" opacity="1.000000" stroke="none" 
	d="
M485.092712,218.116913 
	C484.355530,222.372864 481.862732,224.118729 478.066711,224.139969 
	C475.689026,224.153290 474.359741,222.739288 474.050934,220.510483 
	C473.685028,217.870010 473.176178,215.041473 476.761139,213.994781 
	C480.589478,212.877014 483.709076,213.350693 485.092712,218.116913 
z"/>
<path fill="#000000" opacity="1.000000" stroke="none" 
	d="
M494.850403,450.982635 
	C493.779480,448.033386 493.976349,445.379761 496.426697,444.014587 
	C499.027313,442.565704 501.879883,440.306946 505.160553,442.658997 
	C506.457336,443.588684 507.898987,443.679138 509.356995,443.986877 
	C511.206543,444.377167 512.418518,445.594574 511.660614,447.601959 
	C510.946625,449.493011 509.421539,450.115936 507.690338,448.820587 
	C504.251709,446.247620 502.599457,449.831329 500.460815,451.042511 
	C498.473724,452.167847 496.989990,453.811340 494.850403,450.982635 
z"/>
</svg>